<?xml version="1.0" encoding="utf-8"?>
<!-- Generator: Adobe Illustrator 24.0.2, SVG Export Plug-In . SVG Version: 6.00 Build 0)  -->
<svg version="1.0" id="Layer_1" xmlns="http://www.w3.org/2000/svg" xmlns:xlink="http://www.w3.org/1999/xlink" x="0px" y="0px"
	 width="270px" height="380px" viewBox="0 0 270 380" enable-background="new 0 0 270 380" xml:space="preserve">
<g id="_x31_">
	<rect y="-0.00002" fill="none" width="270" height="380"/>
	<g>
		<circle fill="#262424" stroke="#606266" stroke-width="0.75" stroke-miterlimit="10" cx="83.5" cy="145.5" r="34.93385"/>
		
			<line fill="none" stroke="#606266" stroke-width="0.75" stroke-miterlimit="10" x1="83.5" y1="145.5" x2="58.79808" y2="170.20192"/>
		
			<line fill="none" stroke="#606266" stroke-width="0.5" stroke-miterlimit="10" x1="83.5" y1="145.5" x2="50.8044" y2="157.82994"/>
		
			<line fill="none" stroke="#606266" stroke-width="0.5" stroke-miterlimit="10" x1="83.5" y1="145.5" x2="76.40031" y2="111.2881"/>
		
			<line fill="none" stroke="#606266" stroke-width="0.5" stroke-miterlimit="10" x1="83.5" y1="145.5" x2="90.59969" y2="111.2881"/>
		
			<line fill="none" stroke="#606266" stroke-width="0.5" stroke-miterlimit="10" x1="83.5" y1="145.5" x2="48.66492" y2="143.03194"/>
		
			<line fill="none" stroke="#606266" stroke-width="0.5" stroke-miterlimit="10" x1="83.5" y1="145.5" x2="52.46234" y2="129.33446"/>
		
			<line fill="none" stroke="#606266" stroke-width="0.5" stroke-miterlimit="10" x1="83.5" y1="145.5" x2="116.19561" y2="157.82996"/>
		
			<line fill="none" stroke="#606266" stroke-width="0.75" stroke-miterlimit="10" x1="83.5" y1="145.5" x2="108.20195" y2="170.20195"/>
		<circle fill="#262424" stroke="#606266" stroke-width="0.75" stroke-miterlimit="10" cx="83.5" cy="145.5" r="23.5"/>
	</g>
	<g>
		<circle fill="#262424" stroke="#606266" stroke-width="0.5" stroke-miterlimit="10" cx="186.44551" cy="145.5" r="34.93385"/>
		<circle fill="#262424" stroke="#606266" stroke-width="0.75" stroke-miterlimit="10" cx="186.44551" cy="145.5" r="34.93385"/>
		
			<line fill="none" stroke="#606266" stroke-width="0.5" stroke-miterlimit="10" x1="186.44551" y1="145.5" x2="221.37935" y2="143.02493"/>
		
			<line fill="none" stroke="#606266" stroke-width="0.5" stroke-miterlimit="10" x1="186.44551" y1="145.5" x2="217.37407" y2="129.0912"/>
		
			<line fill="none" stroke="#606266" stroke-width="0.5" stroke-miterlimit="10" x1="186.44551" y1="145.5" x2="154.08533" y2="157.70346"/>
		
			<line fill="none" stroke="#606266" stroke-width="0.5" stroke-miterlimit="10" x1="186.44551" y1="145.5" x2="179.34586" y2="111.28825"/>
		
			<line fill="none" stroke="#606266" stroke-width="0.5" stroke-miterlimit="10" x1="186.44551" y1="145.5" x2="193.54517" y2="111.28825"/>
		
			<line fill="none" stroke="#606266" stroke-width="0.5" stroke-miterlimit="10" x1="186.44551" y1="145.5" x2="218.80569" y2="157.70346"/>
		
			<line fill="none" stroke="#606266" stroke-width="0.75" stroke-miterlimit="10" x1="186.44551" y1="145.5" x2="161.74948" y2="170.19603"/>
		
			<line fill="none" stroke="#606266" stroke-width="0.75" stroke-miterlimit="10" x1="186.44551" y1="145.5" x2="211.14154" y2="170.19603"/>
		<circle fill="#262424" stroke="#606266" stroke-width="0.75" stroke-miterlimit="10" cx="186.44551" cy="145.5" r="23.5"/>
	</g>
	<g>
		<circle fill="#262424" stroke="#606266" stroke-width="0.5" stroke-miterlimit="10" cx="135" cy="198.5" r="34.93385"/>
		
			<line fill="none" stroke="#606266" stroke-width="0.75" stroke-miterlimit="10" x1="135" y1="198.5" x2="110.59309" y2="222.90691"/>
		
			<line fill="none" stroke="#606266" stroke-width="0.5" stroke-miterlimit="10" x1="135" y1="198.5" x2="102.63982" y2="210.70346"/>
		
			<line fill="none" stroke="#606266" stroke-width="0.5" stroke-miterlimit="10" x1="135" y1="198.5" x2="127.90034" y2="164.28827"/>
		
			<line fill="none" stroke="#606266" stroke-width="0.5" stroke-miterlimit="10" x1="135" y1="198.5" x2="142.09966" y2="164.28824"/>
		
			<line fill="none" stroke="#606266" stroke-width="0.5" stroke-miterlimit="10" x1="135" y1="198.5" x2="167.69551" y2="210.82991"/>
		
			<line fill="none" stroke="#606266" stroke-width="0.75" stroke-miterlimit="10" x1="135" y1="198.5" x2="159.70186" y2="223.20186"/>
		<circle fill="#262424" stroke="#606266" stroke-width="0.75" stroke-miterlimit="10" cx="135" cy="198.5" r="23.5"/>
	</g>
	<g>
		<circle fill="#262424" stroke="#606266" stroke-width="0.5" stroke-miterlimit="10" cx="135" cy="283.5" r="34.93385"/>
		
			<line fill="none" stroke="#606266" stroke-width="0.75" stroke-miterlimit="10" x1="135" y1="283.5" x2="110.30396" y2="308.19604"/>
		
			<line fill="none" stroke="#606266" stroke-width="0.75" stroke-miterlimit="10" x1="135" y1="283.5" x2="159.69603" y2="308.19604"/>
		<line fill="none" stroke="#606266" stroke-width="0.5" stroke-miterlimit="10" x1="135" y1="248.56616" x2="135" y2="283.5"/>
		<circle fill="#262424" stroke="#606266" stroke-width="0.75" stroke-miterlimit="10" cx="135" cy="283.5" r="23.5"/>
	</g>
	<g>
		<polyline fill="none" stroke="#A3A3A3" stroke-width="0.75" stroke-linecap="square" points="59.5,140.09242 54.76602,140.09242 
			54.76602,135.84044 53.40902,135.84044 53.40902,140.09242 		"/>
	</g>
	<g>
		<polyline fill="none" stroke="#A3A3A3" stroke-width="0.75" stroke-linecap="square" points="108.16483,159.00717 
			107.13184,159.00717 107.13184,163.25916 105.51349,163.25916 105.51349,159.00717 104.4805,159.00717 104.4805,163.25916 		"/>
		<polyline fill="none" stroke="#A3A3A3" stroke-width="0.75" stroke-linecap="square" points="108.16483,159.00717 
			108.16483,163.25916 110.60181,163.25916 		"/>
	</g>
	<g>
		<polyline fill="none" stroke="#A3A3A3" stroke-width="0.75" stroke-linecap="square" points="80.7644,118.22252 
			80.7644,113.97054 83.7814,113.97054 83.7814,118.22252 		"/>
	</g>
	<g>
		<circle fill="none" cx="71" cy="351" r="14.578"/>
		
			<path fill="#A3A3A3" stroke="#A3A3A3" stroke-width="0.25" stroke-linecap="round" stroke-linejoin="round" stroke-miterlimit="10" d="
			M53.98047,345.19727c-0.125,0.02344-0.27246,0.07861-0.37109,0.14893c-0.08398,0.06152-0.20508,0.18311-0.27148,0.41211
			c-0.11621,0.39941,0.05078,0.74902,0.42578,0.85938c0.1582,0.04541,0.25977,0.02979,0.39453-0.0498
			c0.15625-0.08545,0.26758-0.2168,0.37695-0.34912l0.2832-0.33838c0.16992-0.20557,0.34375-0.39063,0.56152-0.51221
			c0.26563-0.14453,0.52637-0.16016,0.81641-0.07715c0.74414,0.21729,1.0791,0.91113,0.86816,1.6377
			c-0.07715,0.2666-0.22754,0.5835-0.58203,0.78125c-0.25,0.14307-0.56445,0.18359-0.82227,0.16846l0.00586-0.47168
			c0.2207,0.03125,0.42969-0.01221,0.58398-0.0918c0.22656-0.12451,0.33398-0.31006,0.39453-0.51611
			c0.15918-0.5498-0.1582-0.92383-0.56445-1.04248c-0.18164-0.05225-0.35352-0.04395-0.5293,0.06152
			c-0.14258,0.08447-0.25977,0.22021-0.41797,0.4043l-0.27539,0.31299c-0.11914,0.13623-0.26172,0.31152-0.49023,0.44189
			c-0.21973,0.12598-0.4375,0.17432-0.74023,0.08643c-0.62305-0.18164-0.90039-0.78027-0.71094-1.43408
			c0.07227-0.24756,0.17773-0.43262,0.37012-0.59473c0.15625-0.13037,0.36035-0.22314,0.56152-0.26221L53.98047,345.19727z"/>
		
			<path fill="#A3A3A3" stroke="#A3A3A3" stroke-width="0.25" stroke-linecap="round" stroke-linejoin="round" stroke-miterlimit="10" d="
			M59.03906,342.00928c0.00781,0.21289,0.00879,0.71094-0.3457,1.27637c-0.64063,1.02539-1.94336,1.36328-3,0.70313
			c-1.06348-0.66406-1.32617-1.97949-0.68555-3.00488c0.6377-1.02002,1.9375-1.36768,3.00098-0.70264
			c0.65137,0.40723,0.87402,0.95459,0.96387,1.29932l0.86523-0.18604l-0.32031,0.5127L59.03906,342.00928z M58.50586,341.68359
			c-0.06055-0.22314-0.22656-0.66895-0.75-0.99658c-0.81836-0.51123-1.87695-0.26514-2.37402,0.53027
			c-0.50098,0.80078-0.25293,1.85498,0.56543,2.36572c0.81641,0.51074,1.87305,0.271,2.37305-0.53076
			c0.13965-0.22363,0.26758-0.54639,0.25879-0.93701l-1.4248,0.30566l0.32031-0.51172L58.50586,341.68359z"/>
		
			<path fill="#A3A3A3" stroke="#A3A3A3" stroke-width="0.25" stroke-linecap="round" stroke-linejoin="round" stroke-miterlimit="10" d="
			M59.62695,339.38086c0.23047,0.2666,0.48242,0.55664,0.91992,0.55322c0.22266-0.00146,0.50391-0.12012,0.67969-0.27197
			c0.17578-0.15332,0.33398-0.41357,0.36719-0.63379c0.06641-0.43311-0.18359-0.72314-0.41406-0.98975l-1.68555-1.94678
			l0.35352-0.3042l1.76563,2.0415c0.23145,0.26758,0.42383,0.54785,0.45898,0.93457
			c0.03613,0.42676-0.15234,0.88184-0.55762,1.23047c-0.40332,0.35059-0.88184,0.47266-1.29883,0.37598
			c-0.37695-0.09033-0.62793-0.32275-0.8584-0.58887l-1.7666-2.04248l0.35254-0.30518L59.62695,339.38086z"/>
		
			<path fill="#A3A3A3" stroke="#A3A3A3" stroke-width="0.25" stroke-linecap="round" stroke-linejoin="round" stroke-miterlimit="10" d="
			M65.00195,336.35498l-1.61328,0.7749l0.05957,1.28564l-0.46582,0.22314l-0.16211-4.80469l3.60156,3.15186l-0.46484,0.22412
			L65.00195,336.35498z M64.64648,336.03662l-1.36426-1.20947l0.08105,1.82666L64.64648,336.03662z"/>
		
			<path fill="#A3A3A3" stroke="#A3A3A3" stroke-width="0.25" stroke-linecap="round" stroke-linejoin="round" stroke-miterlimit="10" d="
			M66.78027,332.66455c0.27734-0.05762,0.69434-0.125,1.04785,0.01953c0.27344,0.11133,0.54883,0.38184,0.63867,0.82031
			c0.13086,0.62842-0.18555,1.17725-0.7998,1.3501l1.69043,1.56592l-0.55469,0.11621l-1.62793-1.54102l-0.11621,0.0249
			l0.37402,1.80029l-0.45605,0.09473l-0.85547-4.11426L66.78027,332.66455z M66.97266,334.6123l0.29102-0.06006
			c0.56738-0.11816,0.84961-0.45947,0.75-0.94043c-0.04785-0.229-0.16309-0.44336-0.45313-0.53662
			c-0.20703-0.06689-0.41992-0.03564-0.61621,0.00586l-0.27734,0.05762L66.97266,334.6123z"/>
		
			<path fill="#A3A3A3" stroke="#A3A3A3" stroke-width="0.25" stroke-linecap="round" stroke-linejoin="round" stroke-miterlimit="10" d="
			M72.25488,332.63037l-1.71191-0.00244l-0.00195,1.24756l1.66211,0.00098v0.44092l-1.66211-0.00195l-0.00195,1.63037
			l1.71094,0.00146v0.44189l-2.17773-0.00391l0.00488-4.19824l2.17871,0.00342L72.25488,332.63037z"/>
		
			<path fill="#A3A3A3" stroke="#A3A3A3" stroke-width="0.25" stroke-linecap="round" stroke-linejoin="round" stroke-miterlimit="10" d="
			M76.06055,334.88623l1.85059,0.70605l-0.2373,0.62256l-1.84961-0.70605L76.06055,334.88623z"/>
		
			<path fill="#A3A3A3" stroke="#A3A3A3" stroke-width="0.25" stroke-linecap="round" stroke-linejoin="round" stroke-miterlimit="10" d="
			M83.65527,338.2251c0.03418-0.12207,0.0498-0.27881,0.03027-0.39795c-0.01758-0.10107-0.07422-0.26416-0.25098-0.42529
			c-0.30762-0.2793-0.69531-0.28418-0.95801,0.00488c-0.11035,0.12109-0.1416,0.22119-0.12891,0.37646
			c0.00781,0.17725,0.07813,0.33447,0.14648,0.4917l0.17969,0.40186c0.10938,0.24414,0.20117,0.48145,0.21289,0.73047
			c0.01367,0.30176-0.08594,0.54248-0.29004,0.76563c-0.52051,0.57227-1.29199,0.56836-1.85059,0.05957
			c-0.20508-0.18604-0.42285-0.46143-0.44531-0.86475c-0.01855-0.28955,0.08301-0.58838,0.21094-0.81201l0.41992,0.21143
			c-0.125,0.18408-0.17773,0.39111-0.1748,0.56494c0.0127,0.25879,0.13184,0.43555,0.29004,0.5791
			c0.42383,0.38672,0.90039,0.26563,1.18359-0.0459c0.12695-0.14014,0.19531-0.29932,0.17773-0.50342
			c-0.0127-0.16406-0.08398-0.33008-0.17773-0.55322l-0.16016-0.38379c-0.07031-0.16699-0.16602-0.37207-0.18164-0.63379
			c-0.0166-0.25293,0.03516-0.46924,0.24805-0.70215c0.43555-0.48047,1.0957-0.46631,1.59863-0.0083
			c0.19141,0.1748,0.31152,0.35107,0.37109,0.59375c0.0498,0.19775,0.04199,0.42041-0.01074,0.62012L83.65527,338.2251z"/>
		
			<path fill="#A3A3A3" stroke="#A3A3A3" stroke-width="0.25" stroke-linecap="round" stroke-linejoin="round" stroke-miterlimit="10" d="
			M84.59375,342.93506l-0.99805-1.48389l-1.2627,0.24316l-0.28809-0.42871l4.73047-0.85254l-2.60059,4.01855l-0.28809-0.42773
			L84.59375,342.93506z M84.8584,342.5376l1.00195-1.52295l-1.7959,0.34229L84.8584,342.5376z"/>
		
			<path fill="#A3A3A3" stroke="#A3A3A3" stroke-width="0.25" stroke-linecap="round" stroke-linejoin="round" stroke-miterlimit="10" d="
			M88.34375,343.34961l-2.71484,1.94727l3.59961,0.32275l-2.88281,2.13867l3.36914,0.29932l0.14453,0.49609l-4.74023-0.45703
			l2.88477-2.12744l-3.60156-0.32861l3.79688-2.7876L88.34375,343.34961z"/>
	</g>
	<g>
		<circle fill="none" cx="199.5" cy="351.03378" r="14.578"/>
		
			<path fill="#A3A3A3" stroke="#A3A3A3" stroke-width="0.25" stroke-linecap="round" stroke-linejoin="round" stroke-miterlimit="10" d="
			M185.26465,341.50635l1.30762-1.71436l-1.35938-1.03662l0.2832-0.37207l3.3457,2.55078l-0.2832,0.37158l-1.63477-1.24707
			l-1.30762,1.71582l1.63574,1.24707l-0.2832,0.37158l-3.34668-2.55029l0.2832-0.37207L185.26465,341.50635z"/>
		
			<path fill="#A3A3A3" stroke="#A3A3A3" stroke-width="0.25" stroke-linecap="round" stroke-linejoin="round" stroke-miterlimit="10" d="
			M190.68262,337.89941l-1.4248,1.08496l0.31641,1.24805l-0.41113,0.31299l-1.12793-4.67725l4.16797,2.36426l-0.41211,0.31299
			L190.68262,337.89941z M190.26953,337.65967l-1.58105-0.9126l0.44824,1.7749L190.26953,337.65967z"/>
		
			<path fill="#A3A3A3" stroke="#A3A3A3" stroke-width="0.25" stroke-linecap="round" stroke-linejoin="round" stroke-miterlimit="10" d="
			M191.65527,333.93018c0.25977-0.11426,0.6543-0.26514,1.02832-0.19531c0.29102,0.05176,0.61523,0.26074,0.79395,0.67139
			c0.25684,0.58789,0.05957,1.18945-0.50586,1.48389l1.97461,1.18652l-0.51953,0.22559l-1.90723-1.17334l-0.10938,0.04834
			l0.73535,1.68555l-0.42676,0.18652l-1.68066-3.84961L191.65527,333.93018z M192.24414,335.79688l0.27051-0.11914
			c0.53125-0.23145,0.7373-0.62402,0.54102-1.07471c-0.09277-0.21338-0.25-0.39844-0.55176-0.43115
			c-0.2168-0.02295-0.41797,0.05176-0.60352,0.13232l-0.25977,0.11328L192.24414,335.79688z"/>
		
			<path fill="#A3A3A3" stroke="#A3A3A3" stroke-width="0.25" stroke-linecap="round" stroke-linejoin="round" stroke-miterlimit="10" d="
			M194.87305,332.74316l0.84277-0.14551c0.41504-0.07129,1.0127-0.12988,1.60938,0.22021
			c0.43262,0.25098,0.85254,0.72119,0.98145,1.46582c0.15039,0.86719-0.19727,1.40723-0.45117,1.7124
			c-0.32227,0.38867-0.69336,0.61182-1.43164,0.73926l-0.83594,0.14502L194.87305,332.74316z M195.9707,336.36621l0.40332-0.06934
			c0.3291-0.05664,0.77539-0.17188,1.12012-0.57666c0.26563-0.31396,0.44336-0.76611,0.34082-1.35547
			c-0.1709-0.99268-0.97754-1.51758-2.02539-1.33643l-0.40332,0.07031L195.9707,336.36621z"/>
		
			<path fill="#A3A3A3" stroke="#A3A3A3" stroke-width="0.25" stroke-linecap="round" stroke-linejoin="round" stroke-miterlimit="10" d="
			M204.35059,333.6958c-0.03027-0.12451-0.09375-0.26855-0.16797-0.36328c-0.06641-0.08008-0.19434-0.19482-0.42871-0.24951
			c-0.40527-0.09375-0.74609,0.09229-0.83496,0.47363c-0.03711,0.15967-0.01563,0.26221,0.07031,0.3916
			c0.09473,0.15186,0.23242,0.25537,0.37012,0.3584l0.35352,0.26367c0.21484,0.15967,0.41016,0.32178,0.54297,0.53369
			c0.16016,0.25781,0.18945,0.5166,0.12109,0.81201c-0.17578,0.75586-0.85156,1.12939-1.58984,0.95752
			c-0.26953-0.06201-0.59473-0.19727-0.8125-0.53857c-0.15723-0.24316-0.21387-0.55518-0.21289-0.81299l0.47168-0.02002
			c-0.01953,0.22217,0.03613,0.42871,0.12402,0.57861c0.13672,0.22021,0.32813,0.31592,0.53711,0.36475
			c0.55859,0.12988,0.91602-0.20801,1.01172-0.61963c0.04297-0.18359,0.02539-0.35742-0.0918-0.52637
			c-0.08984-0.1377-0.2334-0.24854-0.42578-0.396l-0.32813-0.25781c-0.14258-0.11182-0.3252-0.24463-0.46777-0.46533
			c-0.13867-0.21436-0.19824-0.42871-0.12598-0.73584c0.14648-0.63281,0.73047-0.94287,1.39453-0.78857
			c0.25195,0.05908,0.44238,0.15479,0.61328,0.33643c0.14063,0.14941,0.24316,0.34814,0.29395,0.54736L204.35059,333.6958z"/>
		
			<path fill="#A3A3A3" stroke="#A3A3A3" stroke-width="0.25" stroke-linecap="round" stroke-linejoin="round" stroke-miterlimit="10" d="
			M206.27637,336.07764l-0.22559-2.75586l0.49023,0.23193l0.16699,2.15576l1.7832-1.23584l0.48926,0.23193l-2.28223,1.5708
			l-0.77344,1.63574l-0.42188-0.19873L206.27637,336.07764z"/>
		
			<path fill="#A3A3A3" stroke="#A3A3A3" stroke-width="0.25" stroke-linecap="round" stroke-linejoin="round" stroke-miterlimit="10" d="
			M207.63379,338.76221l2.86426-3.31396l0.2334,4.7417l2.12988-2.46436l0.35352,0.3042l-2.87305,3.32324l-0.23242-4.74072
			l-2.12305,2.4541L207.63379,338.76221z"/>
		
			<path fill="#A3A3A3" stroke="#A3A3A3" stroke-width="0.25" stroke-linecap="round" stroke-linejoin="round" stroke-miterlimit="10" d="
			M215.51855,342.9209c0.04199-0.18262,0.06641-0.4375,0.03711-0.67236c-0.03223-0.23975-0.11719-0.49219-0.24902-0.70117
			c-0.51953-0.82031-1.56445-1.00928-2.38477-0.49072c-0.96484,0.60938-0.9541,1.69971-0.54297,2.3501
			c0.15137,0.23975,0.36914,0.43164,0.58301,0.55664c0.22949,0.13867,0.4541,0.19775,0.55762,0.22119l-0.49023,0.31006
			c-0.53125-0.21582-0.85547-0.58545-1.02344-0.85107c-0.66699-1.05615-0.36328-2.34473,0.66504-2.99512
			c1.06152-0.67139,2.35156-0.37646,3.02637,0.68994c0.13477,0.21387,0.36719,0.64111,0.31152,1.27246L215.51855,342.9209z"/>
	</g>
	<g>
		
			<ellipse transform="matrix(0.08248 -0.99659 0.99659 0.08248 7.76543 241.42732)" fill="none" cx="134.99962" cy="116.49633" rx="25.57993" ry="25.57996"/>
		<path fill="#A3A3A3" stroke="#A3A3A3" stroke-width="0.25" stroke-miterlimit="10" d="M106.59375,102.9951l5.32129,2.4624
			l-0.27246,0.59033l-5.32031-2.4624L106.59375,102.9951z"/>
		<path fill="#A3A3A3" stroke="#A3A3A3" stroke-width="0.25" stroke-miterlimit="10" d="M111.98633,103.61768
			c0.11523-0.20557,0.39063-0.28369,0.59766-0.1665c0.20703,0.11475,0.2832,0.39063,0.16797,0.59717
			c-0.11719,0.20801-0.39258,0.28369-0.59863,0.16895C111.94629,104.10008,111.86914,103.82568,111.98633,103.61768z"/>
		<path fill="#A3A3A3" stroke="#A3A3A3" stroke-width="0.25" stroke-miterlimit="10" d="M114.11426,94.61863
			c-0.26074,0.01465-0.6123,0.07861-0.91504,0.20703c-0.31055,0.13574-0.61523,0.34619-0.84375,0.60205
			c-0.90039,1.00977-0.75586,2.48242,0.25391,3.3833c1.1875,1.05908,2.64258,0.62744,3.35742-0.17188
			c0.2627-0.29443,0.43555-0.65967,0.52148-0.99463c0.09766-0.35938,0.09277-0.68262,0.08398-0.83154l0.60352,0.53809
			c-0.08594,0.79443-0.45703,1.36963-0.75,1.69824c-1.1582,1.29834-3.00195,1.3833-4.26758,0.25391
			c-1.30469-1.16406-1.40234-3.00732-0.23242-4.31738c0.23438-0.26221,0.7168-0.73779,1.58594-0.90527L114.11426,94.61863z"/>
		<path fill="#A3A3A3" stroke="#A3A3A3" stroke-width="0.25" stroke-miterlimit="10" d="M115.14355,92.10838l3.29785,4.08545
			l1.25879-1.01563l0.38574,0.479l-1.76465,1.4248l-3.68457-4.56494L115.14355,92.10838z"/>
		<path fill="#A3A3A3" stroke="#A3A3A3" stroke-width="0.25" stroke-miterlimit="10" d="M122.57617,92.22215l-2.16797,1.24023
			l0.20996,1.78418l-0.62598,0.35791l-0.70801-6.67627l5.33301,4.02979l-0.625,0.35791L122.57617,92.22215z M122.04883,91.81541
			l-2.02148-1.55029l0.29688,2.53564L122.04883,91.81541z"/>
		<path fill="#A3A3A3" stroke="#A3A3A3" stroke-width="0.25" stroke-miterlimit="10" d="M126.01953,87.54688
			c-0.12695-0.12305-0.31055-0.24463-0.46875-0.30078c-0.1377-0.04541-0.37402-0.08398-0.68945,0.02686
			c-0.54688,0.19092-0.81055,0.66553-0.62988,1.18018c0.07617,0.21582,0.17773,0.31885,0.37598,0.4082
			c0.22461,0.1084,0.46387,0.12598,0.70313,0.14502l0.6123,0.04639c0.37207,0.02783,0.72363,0.07129,1.03809,0.22314
			c0.37988,0.18262,0.60938,0.46582,0.74902,0.86426c0.35741,1.01953-0.15918,1.96436-1.15527,2.31299
			c-0.36328,0.12793-0.8457,0.21289-1.35938-0.02588c-0.36621-0.17041-0.66602-0.49365-0.85742-0.79883l0.53906-0.375
			c0.14453,0.27588,0.36426,0.47803,0.58008,0.58838c0.32422,0.15674,0.62109,0.12744,0.90332,0.02832
			c0.75488-0.26416,0.92285-0.92871,0.72754-1.48438c-0.08691-0.24951-0.2373-0.43945-0.5-0.55127
			c-0.20898-0.09424-0.46094-0.11865-0.79688-0.14941l-0.5791-0.05762c-0.25098-0.02441-0.56543-0.04443-0.89844-0.19775
			c-0.32129-0.14746-0.55371-0.35547-0.69824-0.77002c-0.29883-0.85449,0.15625-1.65723,1.05078-1.9707
			c0.33984-0.11816,0.6377-0.14795,0.97461-0.06201c0.27734,0.0708,0.5459,0.22754,0.75488,0.42529L126.01953,87.54688z"/>
		<path fill="#A3A3A3" stroke="#A3A3A3" stroke-width="0.25" stroke-miterlimit="10" d="M130.80957,86.47997
			c-0.10449-0.14258-0.26563-0.29297-0.41309-0.37354c-0.12891-0.06689-0.35547-0.14258-0.68555-0.08447
			c-0.57129,0.10059-0.90723,0.52588-0.8125,1.06299c0.04102,0.22461,0.12305,0.34424,0.30566,0.46338
			c0.2041,0.14355,0.43652,0.2002,0.6709,0.25684l0.5957,0.14551c0.36426,0.0874,0.70313,0.18799,0.98828,0.3877
			c0.34668,0.24268,0.52832,0.55859,0.60156,0.97412c0.1875,1.06543-0.47461,1.91455-1.51367,2.09766
			c-0.38086,0.06738-0.87109,0.07324-1.33789-0.24561c-0.33594-0.22705-0.5791-0.59424-0.71777-0.92676l0.59277-0.28418
			c0.09668,0.29541,0.28125,0.53125,0.47656,0.67578c0.29492,0.20654,0.59375,0.2251,0.8877,0.17334
			c0.78809-0.13867,1.06055-0.76855,0.95898-1.34717c-0.0459-0.26074-0.16504-0.47266-0.40527-0.62598
			c-0.19141-0.12598-0.43555-0.19043-0.76367-0.27637l-0.5625-0.15039c-0.24219-0.06445-0.5498-0.13428-0.85449-0.33936
			c-0.29395-0.19873-0.48828-0.44189-0.56543-0.87402c-0.15625-0.8916,0.42188-1.61035,1.35645-1.77588
			c0.35645-0.06104,0.65332-0.04346,0.97363,0.09717c0.26074,0.11426,0.50195,0.3125,0.67578,0.54053L130.80957,86.47997z"/>
		<path fill="#A3A3A3" stroke="#A3A3A3" stroke-width="0.25" stroke-miterlimit="10" d="M133.72852,85.07273l0.30176,5.8584
			l-0.64941,0.03369l-0.30273-5.8584L133.72852,85.07273z"/>
		<path fill="#A3A3A3" stroke="#A3A3A3" stroke-width="0.25" stroke-miterlimit="10" d="M140.24414,86.69627
			c-0.16602-0.20117-0.42578-0.44629-0.71094-0.61328c-0.29297-0.16943-0.64453-0.29102-0.98633-0.32227
			c-1.34766-0.12695-2.44727,0.86572-2.57422,2.21338c-0.14844,1.58496,1.06445,2.50293,2.13281,2.60254
			c0.39258,0.03662,0.78906-0.04102,1.10938-0.16992c0.34961-0.13428,0.60547-0.33154,0.7207-0.42627l-0.07617,0.80566
			c-0.69043,0.40186-1.375,0.44336-1.8125,0.40332c-1.7334-0.16309-2.89648-1.59668-2.73828-3.28662
			c0.16406-1.7417,1.58984-2.91455,3.33984-2.75195c0.35059,0.03369,1.02051,0.14111,1.6709,0.74023L140.24414,86.69627z"/>
		<path fill="#A3A3A3" stroke="#A3A3A3" stroke-width="0.25" stroke-miterlimit="10" d="M145.06641,86.50633L144.625,91.145
			l3.63672-3.48828l-0.39063,4.99072l3.40039-3.26904l0.6543,0.30273l-4.82422,4.56641l0.40723-4.98291l-3.64648,3.48389
			l0.5498-6.54395L145.06641,86.50633z"/>
		<path fill="#A3A3A3" stroke="#A3A3A3" stroke-width="0.25" stroke-miterlimit="10" d="M152.94238,95.9707l-1.95215-1.5542
			l-1.57813,0.85547l-0.56445-0.44922l5.93555-3.12549l-1.76953,6.44141l-0.56445-0.44922L152.94238,95.9707z M153.125,95.33103
			l0.69141-2.44824l-2.24414,1.21094L153.125,95.33103z"/>
		<path fill="#A3A3A3" stroke="#A3A3A3" stroke-width="0.25" stroke-miterlimit="10" d="M157.44531,94.42283l-2.25195,4.19873
			l4.43945-1.72754l0.47754,0.53955l-6.21875,2.34033l3.07617-5.89014L157.44531,94.42283z"/>
		<path fill="#A3A3A3" stroke="#A3A3A3" stroke-width="0.25" stroke-miterlimit="10" d="M162.0957,101.67283l-1.26367-2.0332
			l-1.47852,0.91992l1.22461,1.97217l-0.52246,0.32568l-1.22559-1.97314l-1.93555,1.20313l1.26367,2.03174l-0.52344,0.32422
			l-1.60742-2.5835l4.98438-3.09619l1.60547,2.5835L162.0957,101.67283z"/>
		<path fill="#A3A3A3" stroke="#A3A3A3" stroke-width="0.25" stroke-miterlimit="10" d="M163.40625,105.9199
			c0.11523-0.13379,0.22656-0.32275,0.27344-0.48535c0.03711-0.13867,0.0625-0.37695-0.06445-0.68555
			c-0.22266-0.53613-0.71094-0.77148-1.21387-0.5625c-0.21094,0.08691-0.30957,0.19482-0.38574,0.39844
			c-0.0957,0.22852-0.10156,0.46973-0.10645,0.70947l-0.01172,0.61279c-0.00684,0.37451-0.03223,0.72803-0.16504,1.04834
			c-0.16211,0.39111-0.43164,0.63574-0.82031,0.79785c-0.99805,0.41309-1.9707-0.04883-2.375-1.02344
			c-0.14844-0.35645-0.25977-0.8335-0.04883-1.3584c0.14844-0.37598,0.45508-0.69287,0.74902-0.8999l0.40527,0.5166
			c-0.26758,0.1582-0.45703,0.38867-0.55566,0.60986c-0.1377,0.3335-0.0918,0.62891,0.02246,0.9043
			c0.30664,0.73877,0.97852,0.86865,1.52246,0.64355c0.24316-0.10059,0.4248-0.26074,0.52246-0.52979
			c0.08203-0.21484,0.0918-0.4668,0.10352-0.8042l0.02539-0.58154c0.00977-0.25195,0.01367-0.56689,0.14746-0.9082
			c0.12988-0.32861,0.32324-0.57178,0.72949-0.73975c0.83594-0.34668,1.66211,0.06201,2.02539,0.93896
			c0.13867,0.33252,0.18457,0.62744,0.11719,0.96973c-0.05469,0.2793-0.19727,0.55713-0.38281,0.77686L163.40625,105.9199z"/>
	</g>
	<path fill="#A3A3A3" d="M143.78345,116.13631c0,0.72153-0.59148,1.3131-1.317,1.3131c-0.7216,0-1.31306-0.59157-1.31306-1.3131
		v-1.19083l-13.07146,5.56763c-0.16562,0.07497-0.33911,0.11047-0.51262,0.11047c-0.25236,0-0.50865-0.07497-0.72552-0.21684
		c-0.37066-0.2485-0.59148-0.65859-0.59148-1.10022v-3.18213c0-0.7255,0.59148-1.31297,1.31699-1.31297
		c0.7216,0,1.31306,0.58747,1.31306,1.31297v1.19083l13.07146-5.57161c0.40219-0.17352,0.87932-0.13405,1.23814,0.11047
		c0.37067,0.2444,0.59148,0.6545,0.59148,1.09613V116.13631z M143.78345,130.15013c0,0.72562-0.59148,1.31706-1.317,1.31706
		h-7.45647c-0.72552,0-1.317-0.59145-1.317-1.31706v-5.04721h-4.81061v1.86507c0,0.72562-0.59146,1.31311-1.31306,1.31311
		c-0.72552,0-1.31699-0.58749-1.31699-1.31311v-3.17815c0-0.7255,0.59148-1.31297,1.31699-1.31297h7.44067
		c0.7216,0,1.31306,0.58747,1.31306,1.31297v5.04733h4.83034v-1.86918c0-0.72549,0.59146-1.31297,1.31306-1.31297
		c0.72552,0,1.317,0.58748,1.317,1.31297V130.15013z M126.7176,105.50562l3.72231-3.17816
		c0.49289-0.41792,1.21054-0.41792,1.70343,0l6.6008,5.63479l2.87057-2.45663c0.5481-0.46136,1.37616-0.40614,1.85327,0.14981
		c0.46924,0.54813,0.40614,1.38012-0.14983,1.85328l-3.71837,3.18213c-0.24841,0.21299-0.55203,0.31551-0.85565,0.31551
		c-0.29968,0-0.6033-0.10252-0.85173-0.31551l-6.6008-5.63082l-2.87057,2.44869c-0.54415,0.47327-1.37221,0.41804-1.85327-0.14982
		C126.09853,106.81075,126.16163,105.97875,126.7176,105.50562 M135.01788,94.38596c-12.34198,0-22.35358,10.00775-22.35358,22.3536
		c0,12.34995,10.0116,22.35758,22.35358,22.35758c12.35381,0,22.35356-10.00763,22.35356-22.35759
		C157.37144,104.3937,147.37169,94.38596,135.01788,94.38596"/>
	<g>
		<circle fill="none" cx="83.5" cy="145.5" r="28.59473"/>
		<path fill="#A3A3A3" stroke="#A3A3A3" stroke-width="0.25" stroke-linejoin="round" stroke-miterlimit="10" d="
			M71.34375,169.59326c0.00586-0.15918-0.02246-0.3584-0.08105-0.50049c-0.05176-0.12061-0.16992-0.30371-0.43652-0.4502
			c-0.46289-0.25586-0.94238-0.14551-1.18262,0.28809c-0.10059,0.18311-0.1084,0.31494-0.04785,0.50244
			c0.0625,0.21875,0.19434,0.3916,0.32813,0.56543l0.33984,0.44336c0.20703,0.27002,0.39063,0.53516,0.47852,0.83936
			c0.10645,0.36865,0.05371,0.69727-0.13184,1.0332c-0.47559,0.86182-1.42871,1.08447-2.27051,0.62061
			c-0.30762-0.16943-0.6582-0.44482-0.80664-0.93799c-0.10742-0.35059-0.07031-0.75098,0.02148-1.06641l0.58203,0.13818
			c-0.09961,0.26367-0.10449,0.53613-0.04883,0.75c0.0918,0.31494,0.29102,0.49902,0.53027,0.62939
			c0.6377,0.35205,1.18945,0.06348,1.44824-0.40625c0.11523-0.21045,0.15332-0.42725,0.07031-0.6748
			c-0.06348-0.19824-0.19922-0.38379-0.38281-0.63086l-0.3125-0.42773c-0.13574-0.18457-0.3125-0.40967-0.41113-0.729
			c-0.09473-0.30859-0.09473-0.59082,0.09863-0.94043c0.39844-0.72168,1.21777-0.90039,1.97461-0.4834
			c0.28711,0.1582,0.48828,0.3418,0.63379,0.62305c0.12012,0.23047,0.17676,0.50879,0.16895,0.76953L71.34375,169.59326z"/>
		<path fill="#A3A3A3" stroke="#A3A3A3" stroke-width="0.25" stroke-linejoin="round" stroke-miterlimit="10" d="M76.13672,175.5083
			c-0.25879,0.08105-0.86914,0.24756-1.68066,0.00391c-1.47168-0.44238-2.31934-1.92627-1.8623-3.44336
			c0.45898-1.52393,1.98242-2.28516,3.45313-1.84277c1.46387,0.44141,2.32227,1.91943,1.86328,3.44336
			c-0.28223,0.93457-0.87891,1.39014-1.27148,1.61475l0.51758,1l-0.73535-0.22217L76.13672,175.5083z M76.35742,174.74756
			c0.25391-0.14893,0.74414-0.50244,0.9707-1.25244c0.35254-1.17334-0.30078-2.38867-1.44238-2.73291
			c-1.14941-0.34619-2.35742,0.30908-2.70996,1.48242c-0.35352,1.1709,0.29199,2.38574,1.44141,2.73145
			c0.32227,0.09668,0.75781,0.14453,1.23633,0.00488l-0.85156-1.64355l0.73535,0.22119L76.35742,174.74756z"/>
		<path fill="#A3A3A3" stroke="#A3A3A3" stroke-width="0.25" stroke-linejoin="round" stroke-miterlimit="10" d="
			M80.35254,174.53564c-0.02734,0.44824-0.05566,0.93555,0.34473,1.32031c0.20508,0.19727,0.56641,0.33936,0.86133,0.35693
			c0.29492,0.01807,0.66992-0.08008,0.89648-0.25049c0.44531-0.33398,0.47559-0.82129,0.50195-1.26953l0.19824-3.26758
			l0.59082,0.03564l-0.20703,3.42725c-0.02734,0.44824-0.10156,0.87646-0.41309,1.25879
			c-0.34668,0.41992-0.92188,0.66602-1.60059,0.625c-0.67969-0.04102-1.22266-0.354-1.51563-0.81299
			c-0.26367-0.4165-0.28516-0.85205-0.25879-1.29834l0.20801-3.4292l0.59082,0.03564L80.35254,174.53564z"/>
		<path fill="#A3A3A3" stroke="#A3A3A3" stroke-width="0.25" stroke-linejoin="round" stroke-miterlimit="10" d="
			M88.83984,174.76514l-2.24805,0.32373l-0.41895,1.57959l-0.64941,0.09229l1.63477-5.88232l3.16211,5.19238l-0.64844,0.09424
			L88.83984,174.76514z M88.53125,174.24463l-1.19043-1.98633l-0.59863,2.24219L88.53125,174.24463z"/>
		<path fill="#A3A3A3" stroke="#A3A3A3" stroke-width="0.25" stroke-linejoin="round" stroke-miterlimit="10" d="
			M91.38379,170.17529c0.34082-0.11621,0.85547-0.26563,1.32129-0.13721c0.3623,0.09668,0.75098,0.396,0.93359,0.93359
			c0.26172,0.77197-0.05273,1.51221-0.79883,1.82568l2.37109,1.70996l-0.68164,0.23096l-2.28711-1.68848l-0.14453,0.04932
			l0.75098,2.21143L92.28809,175.5l-1.71484-5.05029L91.38379,170.17529z M91.92773,172.59912l0.35547-0.12158
			c0.69727-0.23486,1.00098-0.70996,0.80078-1.30127c-0.0957-0.2793-0.27441-0.53125-0.6543-0.60498
			c-0.27051-0.05176-0.5332,0.02002-0.77539,0.10303l-0.34082,0.11523L91.92773,172.59912z"/>
		<path fill="#A3A3A3" stroke="#A3A3A3" stroke-width="0.25" stroke-linejoin="round" stroke-miterlimit="10" d="
			M97.38086,168.07764l-1.91406,1.03223l0.75098,1.39404l1.85742-1.00342l0.2666,0.49365l-1.8584,1.00244l0.9834,1.82227
			l1.91406-1.03271l0.26563,0.49268l-2.43457,1.31348l-2.53223-4.69434l2.43457-1.31299L97.38086,168.07764z"/>
	</g>
	
		<line fill="none" stroke="#A3A3A3" stroke-width="0.75" stroke-linecap="square" x1="83.7814" y1="118.22252" x2="86.7984" y2="118.22252"/>
	<g>
		<path fill="#A3A3A3" d="M54.98047,162.49512c0-1.00684,0.74414-1.75098,1.75977-1.75098s1.75879,0.74414,1.75879,1.75098
			c0,1.00781-0.75195,1.74316-1.75879,1.74316C55.73242,164.23828,54.98047,163.50293,54.98047,162.49512z M55.57227,162.49512
			c0,0.81543,0.57617,1.23145,1.16797,1.23145c0.59961,0,1.16699-0.42383,1.16699-1.23145
			c0-0.81543-0.55957-1.23926-1.16699-1.23926S55.57227,161.6875,55.57227,162.49512z"/>
		<path fill="#A3A3A3" d="M59.97266,161.35156v2.79102h-0.57617v-2.79102h-0.32031v-0.52734h0.32031v-1.44727
			c0-0.30371,0.02344-0.6875,0.32031-0.93555c0.16016-0.13574,0.39941-0.21582,0.66309-0.21582
			c0.20801,0,0.34375,0.04785,0.4082,0.07227v0.55957c-0.12012-0.04785-0.25586-0.07227-0.37598-0.07227
			c-0.12793,0-0.2793,0.03223-0.36719,0.17578c-0.07227,0.12012-0.07227,0.30371-0.07227,0.48047v1.38281h0.81543v0.52734H59.97266z
			"/>
		<path fill="#A3A3A3" d="M62.05273,161.35156v2.79102h-0.57617v-2.79102h-0.32031v-0.52734h0.32031v-1.44727
			c0-0.30371,0.02344-0.6875,0.32031-0.93555c0.16016-0.13574,0.39941-0.21582,0.66309-0.21582
			c0.20801,0,0.34375,0.04785,0.4082,0.07227v0.55957c-0.12012-0.04785-0.25586-0.07227-0.37598-0.07227
			c-0.12793,0-0.2793,0.03223-0.36719,0.17578c-0.07227,0.12012-0.07227,0.30371-0.07227,0.48047v1.38281h0.81543v0.52734H62.05273z
			"/>
	</g>
	<g>
		<circle fill="none" cx="186.44551" cy="145.5" r="28.59473"/>
		<path fill="#A3A3A3" stroke="#A3A3A3" stroke-width="0.25" stroke-linejoin="round" stroke-miterlimit="10" d="
			M180.74023,171.87061c-0.03418-0.15625-0.11133-0.34082-0.2041-0.46436c-0.08105-0.10303-0.24121-0.25098-0.53613-0.32617
			c-0.51172-0.13037-0.94922,0.09766-1.07227,0.5791c-0.05078,0.20068-0.02637,0.33154,0.08008,0.49902
			c0.11523,0.19385,0.28711,0.32861,0.45996,0.46387l0.44141,0.34326c0.26855,0.20801,0.5127,0.41943,0.6748,0.69189
			c0.19629,0.32959,0.22852,0.66064,0.13379,1.0332c-0.24316,0.95459-1.11035,1.41162-2.04199,1.17432
			c-0.34082-0.08691-0.75-0.26514-1.01758-0.70508c-0.19336-0.31348-0.25781-0.70996-0.24805-1.03809l0.59766-0.0127
			c-0.03027,0.28125,0.03418,0.5459,0.14258,0.73779c0.16797,0.28271,0.4082,0.41016,0.67188,0.47705
			c0.70703,0.1792,1.16797-0.24023,1.2998-0.75977c0.05957-0.23291,0.04004-0.45264-0.10254-0.67041
			c-0.11133-0.17725-0.28906-0.32227-0.5293-0.51514l-0.41016-0.33496c-0.17871-0.14502-0.40723-0.31836-0.58203-0.60205
			c-0.16992-0.27441-0.24121-0.54932-0.14258-0.93701c0.20313-0.79883,0.95215-1.17822,1.79004-0.96533
			c0.31836,0.08105,0.55859,0.2085,0.77051,0.44385c0.1748,0.19287,0.2998,0.44727,0.35938,0.70166L180.74023,171.87061z"/>
		<path fill="#A3A3A3" stroke="#A3A3A3" stroke-width="0.25" stroke-linejoin="round" stroke-miterlimit="10" d="
			M185.7334,175.24561l-2.27051-0.13672l-0.72949,1.46387l-0.65527-0.03955l2.79102-5.43799l2.05176,5.72998l-0.65527-0.03906
			L185.7334,175.24561z M185.53516,174.67334l-0.76563-2.18799l-1.04004,2.07764L185.53516,174.67334z"/>
		<path fill="#A3A3A3" stroke="#A3A3A3" stroke-width="0.25" stroke-linejoin="round" stroke-miterlimit="10" d="
			M187.82227,171.54102l2.07813,3.70068l0.91211-4.49951l2.29785,3.93799l0.84863-4.21191l0.64551-0.11377l-1.23926,5.92334
			l-2.28223-3.94238l-0.91895,4.50146l-2.98828-5.18213L187.82227,171.54102z"/>
	</g>
	
		<line fill="none" stroke="#A3A3A3" stroke-width="0.75" stroke-linecap="square" x1="162.26285" y1="158.39166" x2="165.28485" y2="162.36566"/>
	
		<line fill="none" stroke="#A3A3A3" stroke-width="0.75" stroke-linecap="square" x1="184.55577" y1="113.47054" x2="190.58977" y2="117.72252"/>
	
		<line fill="none" stroke="#A3A3A3" stroke-width="0.75" stroke-linecap="square" x1="212.27858" y1="137.47469" x2="216.95558" y2="140.09767"/>
	<g>
		<path fill="#A3A3A3" d="M205.07813,162.49512c0-1.00684,0.74316-1.75098,1.75781-1.75098
			c1.01563,0,1.75977,0.74414,1.75977,1.75098c0,1.00781-0.75195,1.74316-1.75977,1.74316
			C205.8291,164.23828,205.07813,163.50293,205.07813,162.49512z M205.66895,162.49512c0,0.81543,0.57617,1.23145,1.16699,1.23145
			c0.59961,0,1.16797-0.42383,1.16797-1.23145c0-0.81543-0.55957-1.23926-1.16797-1.23926
			C206.22852,161.25586,205.66895,161.6875,205.66895,162.49512z"/>
		<path fill="#A3A3A3" d="M210.06836,161.35156v2.79102h-0.5752v-2.79102h-0.31934v-0.52734h0.31934v-1.44727
			c0-0.30371,0.02441-0.6875,0.31934-0.93555c0.16016-0.13574,0.40039-0.21582,0.66406-0.21582
			c0.20801,0,0.34375,0.04785,0.4082,0.07227v0.55957c-0.12012-0.04785-0.25586-0.07227-0.37598-0.07227
			c-0.12793,0-0.28027,0.03223-0.36816,0.17578c-0.07227,0.12012-0.07227,0.30371-0.07227,0.48047v1.38281h0.81641v0.52734
			H210.06836z"/>
		<path fill="#A3A3A3" d="M212.14844,161.35156v2.79102h-0.5752v-2.79102h-0.31934v-0.52734h0.31934v-1.44727
			c0-0.30371,0.02441-0.6875,0.31934-0.93555c0.16016-0.13574,0.40039-0.21582,0.66406-0.21582
			c0.20801,0,0.34375,0.04785,0.4082,0.07227v0.55957c-0.12012-0.04785-0.25586-0.07227-0.37598-0.07227
			c-0.12793,0-0.28027,0.03223-0.36816,0.17578c-0.07227,0.12012-0.07227,0.30371-0.07227,0.48047v1.38281h0.81641v0.52734
			H212.14844z"/>
	</g>
	<g>
		<circle fill="none" cx="135" cy="198.5" r="28.59473"/>
		
			<path fill="#A3A3A3" stroke="#A3A3A3" stroke-width="0.25" stroke-linecap="round" stroke-linejoin="round" stroke-miterlimit="10" d="
			M120.51367,221.27051c0.02344-0.15967,0.01465-0.35986-0.0293-0.50684c-0.04102-0.125-0.14063-0.31885-0.39063-0.4917
			c-0.43555-0.29736-0.9248-0.23535-1.20508,0.17334c-0.11816,0.1709-0.13965,0.30176-0.09766,0.49561
			c0.04102,0.22314,0.15625,0.4082,0.27148,0.59424l0.29492,0.47412c0.18066,0.28955,0.33594,0.56982,0.39453,0.88184
			c0.07031,0.37793-0.01465,0.69922-0.23242,1.01563c-0.55664,0.81152-1.52734,0.93994-2.31836,0.39648
			c-0.29102-0.19922-0.61328-0.50781-0.71289-1.01318c-0.07227-0.35986,0.00391-0.75342,0.12598-1.05811l0.56543,0.19385
			c-0.12598,0.25293-0.15625,0.52344-0.12109,0.74121c0.05957,0.32275,0.24121,0.52441,0.46484,0.6792
			c0.60059,0.41162,1.17871,0.17725,1.48242-0.26416c0.13477-0.19824,0.19336-0.41016,0.13477-0.66406
			c-0.04297-0.20459-0.16016-0.40039-0.31836-0.66455l-0.26953-0.45752c-0.11719-0.1958-0.27148-0.43799-0.33789-0.76563
			c-0.06445-0.31543-0.03711-0.59717,0.19043-0.92725c0.46582-0.67871,1.2998-0.77637,2.01074-0.28662
			c0.27148,0.18506,0.45313,0.38672,0.57031,0.68164c0.09668,0.24072,0.12695,0.52393,0.09375,0.78223L120.51367,221.27051z"/>
		
			<path fill="#A3A3A3" stroke="#A3A3A3" stroke-width="0.25" stroke-linecap="round" stroke-linejoin="round" stroke-miterlimit="10" d="
			M123.44336,225.93066l-2.06152-0.9624l-1.2168,1.09375l-0.59473-0.27832l4.59375-4.03125l-0.19727,6.0835l-0.5957-0.27734
			L123.44336,225.93066z M123.46875,225.32373l0.0918-2.31592l-1.73047,1.55176L123.46875,225.32373z"/>
		
			<path fill="#A3A3A3" stroke="#A3A3A3" stroke-width="0.25" stroke-linecap="round" stroke-linejoin="round" stroke-miterlimit="10" d="
			M126.20313,223.07959l0.48828,4.20801l2.57227-3.79248l0.59961,4.51172l2.4043-3.55225l0.63867,0.14404l-3.42285,4.97803
			l-0.58496-4.50977l-2.58008,3.7915l-0.75488-5.9248L126.20313,223.07959z"/>
		
			<path fill="#A3A3A3" stroke="#A3A3A3" stroke-width="0.25" stroke-linecap="round" stroke-linejoin="round" stroke-miterlimit="10" d="
			M136.57813,224.91064l0.24316,4.77051l-0.59082,0.03076l-0.24414-4.77051l-1.29492,0.06543l-0.02832-0.55859l3.18066-0.16211
			l0.02832,0.55957L136.57813,224.91064z"/>
		
			<path fill="#A3A3A3" stroke="#A3A3A3" stroke-width="0.25" stroke-linecap="round" stroke-linejoin="round" stroke-miterlimit="10" d="
			M139.69141,227.31836c0.09082,0.4375,0.19043,0.91504,0.67969,1.18164c0.24805,0.13574,0.63281,0.17725,0.92188,0.1167
			c0.28906-0.06104,0.625-0.25342,0.79883-0.47705c0.34082-0.43799,0.24121-0.91553,0.15039-1.35352l-0.66797-3.2002
			l0.57813-0.12109l0.70117,3.35645c0.0918,0.43896,0.13281,0.87109-0.06738,1.3208
			c-0.22363,0.49609-0.71387,0.88281-1.37988,1.02295c-0.66406,0.1377-1.26855-0.021-1.67188-0.38623
			c-0.36328-0.33203-0.49805-0.74609-0.58984-1.18262l-0.70117-3.35645l0.58008-0.12158L139.69141,227.31836z"/>
		
			<path fill="#A3A3A3" stroke="#A3A3A3" stroke-width="0.25" stroke-linecap="round" stroke-linejoin="round" stroke-miterlimit="10" d="
			M145.2998,228.0835l-2.21582-5.10254l5.55566,2.34277l-1.64941-3.7959l0.54395-0.23584l2.22168,5.11816l-5.55469-2.34326
			l1.6416,3.78125L145.2998,228.0835z"/>
		
			<path fill="#A3A3A3" stroke="#A3A3A3" stroke-width="0.25" stroke-linecap="round" stroke-linejoin="round" stroke-miterlimit="10" d="
			M151.04492,219.59277l-1.80273,1.2168l0.88379,1.31299l1.75098-1.18018l0.31348,0.46436l-1.75098,1.1792l1.15723,1.71777
			l1.80469-1.21436l0.3125,0.46289l-2.29492,1.54639l-2.98145-4.42334l2.29492-1.54688L151.04492,219.59277z"/>
	</g>
	<g>
		<path fill="#A3A3A3" d="M106.84961,214.96582h1.19531v0.40186h-1.19531V214.96582z"/>
		<path fill="#A3A3A3" d="M109.76074,213.08057h-0.6084l0.21191-0.37988h0.79785v3.62305h-0.40137
			C109.76073,216.32373,109.76073,213.08057,109.76074,213.08057z"/>
		<path fill="#A3A3A3" d="M110.85742,216.32373l1.32031-1.52637c0.09277-0.10889,0.33691-0.39648,0.42383-0.52686
			c0.16309-0.23389,0.20117-0.40771,0.20117-0.5542c0-0.40723-0.29297-0.70605-0.72266-0.70605
			c-0.25586,0-0.4668,0.11377-0.60352,0.32031c-0.07031,0.10889-0.11328,0.24463-0.11914,0.4292h-0.40234
			c0.01758-0.36377,0.13086-0.58643,0.27246-0.74951c0.15137-0.17383,0.40723-0.36963,0.8584-0.36963
			c0.64063,0,1.11914,0.45654,1.11914,1.08105c0,0.24463-0.07031,0.46729-0.28809,0.77686
			c-0.15234,0.21191-0.34766,0.43457-0.49512,0.60303l-0.75391,0.85303h1.53125v0.36914H110.85742z"/>
	</g>
	<g>
		<path fill="#A3A3A3" d="M133.79004,171.54102c-0.23926-0.34766-0.36426-0.81445-0.36426-1.33105
			c0-0.51563,0.125-0.98242,0.36426-1.33008c0.27734-0.40234,0.6416-0.54395,0.92871-0.54395
			c0.28809,0,0.65234,0.1416,0.92969,0.54395c0.23828,0.34766,0.36328,0.81445,0.36328,1.33008
			c0,0.5166-0.125,0.9834-0.36328,1.33105c-0.27734,0.40234-0.6416,0.54395-0.92969,0.54395
			C134.43164,172.08496,134.06738,171.94336,133.79004,171.54102z M134.09375,169.10742
			c-0.19531,0.30957-0.26563,0.72266-0.26563,1.10254c0,0.38086,0.07031,0.79395,0.26563,1.10352
			c0.19043,0.30371,0.44043,0.40137,0.625,0.40137c0.18555,0,0.43457-0.09766,0.625-0.40137
			c0.19531-0.30957,0.26563-0.72266,0.26563-1.10352c0-0.37988-0.07031-0.79297-0.26563-1.10254
			c-0.19043-0.30371-0.43945-0.40137-0.625-0.40137C134.53418,168.70605,134.28418,168.80371,134.09375,169.10742z"/>
	</g>
	<g>
		<circle fill="none" cx="135" cy="283.5" r="28.59473"/>
		
			<path fill="#A3A3A3" stroke="#A3A3A3" stroke-width="0.25" stroke-linecap="round" stroke-linejoin="round" stroke-miterlimit="10" d="
			M117.6709,309.67383l3.43262-4.54932l-0.3125,4.93604l3.96484-2.99658l-1.91992,5.36523l-0.53711-0.28564l1.30273-3.51123
			l-3.45313,2.61572l0.27148-4.31299l-2.21289,3.0249L117.6709,309.67383z"/>
		
			<path fill="#A3A3A3" stroke="#A3A3A3" stroke-width="0.25" stroke-linecap="round" stroke-linejoin="round" stroke-miterlimit="10" d="
			M127.42578,308.27979l-1.61328,5.0874l-0.56445-0.17871l1.61328-5.0874L127.42578,308.27979z"/>
		
			<path fill="#A3A3A3" stroke="#A3A3A3" stroke-width="0.25" stroke-linecap="round" stroke-linejoin="round" stroke-miterlimit="10" d="
			M129.7207,311.49268l-0.96484-2.78711l0.66309,0.11621l0.74023,2.17041l1.46777-1.78223l0.66211,0.11719l-1.88965,2.28467
			l1.04395,2.98877l-0.66309-0.11621l-0.82617-2.37305l-1.60254,1.9458l-0.66211-0.11719L129.7207,311.49268z"/>
		
			<path fill="#A3A3A3" stroke="#A3A3A3" stroke-width="0.25" stroke-linecap="round" stroke-linejoin="round" stroke-miterlimit="10" d="
			M135.90332,312.21533c-0.2207-1.57666,0.8457-2.9043,2.36621-3.11719c1.51953-0.21289,2.91016,0.77246,3.12988,2.34814
			c0.21973,1.56787-0.83691,2.90234-2.36621,3.11621C137.50391,314.77686,136.12305,313.7832,135.90332,312.21533z
			 M136.50488,312.13086c0.16895,1.21143,1.2627,2.04297,2.4502,1.87695c1.18848-0.16602,2.01172-1.26611,1.84277-2.47705
			c-0.16895-1.21143-1.2627-2.04395-2.45117-1.87793C137.1582,309.81787,136.33594,310.91846,136.50488,312.13086z"/>
		
			<path fill="#A3A3A3" stroke="#A3A3A3" stroke-width="0.25" stroke-linecap="round" stroke-linejoin="round" stroke-miterlimit="10" d="
			M144.00879,311.27246c0.15723,0.41992,0.3291,0.87695,0.85254,1.06543c0.26563,0.09619,0.65332,0.07959,0.93164-0.02344
			c0.27734-0.10449,0.58008-0.3457,0.7168-0.59326c0.27148-0.4873,0.09961-0.94434-0.05664-1.36377l-1.14844-3.06592
			l0.55469-0.20801l1.2041,3.21582c0.15723,0.41895,0.26465,0.84082,0.13477,1.31787
			c-0.14551,0.52393-0.57129,0.98389-1.20996,1.22217c-0.63672,0.2373-1.25977,0.17285-1.71387-0.12842
			c-0.41113-0.27295-0.60645-0.66113-0.76465-1.08105l-1.2041-3.21582l0.55566-0.2085L144.00879,311.27246z"/>
		
			<path fill="#A3A3A3" stroke="#A3A3A3" stroke-width="0.25" stroke-linecap="round" stroke-linejoin="round" stroke-miterlimit="10" d="
			M148.77148,306.08643l2.44727,4.10596l-0.50781,0.30322l-2.44922-4.10645l-1.11328,0.66455l-0.28711-0.48096l2.73633-1.63135
			l0.28809,0.48096L148.77148,306.08643z"/>
	</g>
	<g>
		<circle fill="none" cx="135" cy="283.44943" r="28.59473"/>
		<path fill="#A3A3A3" d="M158.80566,266.83154l1.11621,1.72021l1.36328-0.88525l0.24219,0.37158l-3.35449,2.1792l-0.24121-0.37158
			l1.63867-1.06543l-1.11621-1.71973l-1.63965,1.06494l-0.24219-0.37256l3.35449-2.17871l0.24121,0.37207L158.80566,266.83154z"/>
		<path fill="#A3A3A3" d="M160.72266,272.93945l-0.69434-1.55762l-1.22754,0.02148l-0.19922-0.4502l4.58398-0.02393
			l-3.10352,3.34717l-0.20117-0.4502L160.72266,272.93945z M161.03516,272.60986l1.19043-1.2666l-1.74316,0.02734
			L161.03516,272.60986z"/>
		<path fill="#A3A3A3" d="M164.34766,274.64209c0.07422,0.25928,0.16895,0.65088,0.05469,0.99512
			c-0.08594,0.26758-0.32227,0.54785-0.73242,0.66504c-0.58691,0.16846-1.13086-0.09326-1.33789-0.66357l-1.36719,1.71387
			l-0.14844-0.51855l1.34766-1.65234l-0.03125-0.10986l-1.68359,0.48242l-0.12305-0.42627l3.84473-1.10254L164.34766,274.64209z
			 M162.51367,274.96289l0.07617,0.271c0.15332,0.52979,0.49707,0.77393,0.94629,0.64502
			c0.21387-0.06055,0.4082-0.18555,0.47754-0.46729c0.04883-0.20117,0.00391-0.3999-0.04883-0.58447l-0.07422-0.25928
			L162.51367,274.96289z"/>
		<path fill="#A3A3A3" d="M165.14453,277.78711l0.11523,0.80762c0.05664,0.39844,0.0957,0.96826-0.25488,1.52734
			c-0.25098,0.40527-0.71191,0.79199-1.4248,0.89307c-0.83008,0.11865-1.33398-0.22803-1.61719-0.47803
			c-0.36133-0.31836-0.56445-0.67725-0.66406-1.38379l-0.11426-0.80127L165.14453,277.78711z M161.66309,278.73193l0.05566,0.38623
			c0.04395,0.31445,0.1416,0.74316,0.51758,1.08301c0.29004,0.26123,0.7168,0.44336,1.2793,0.36328
			c0.95117-0.13574,1.47363-0.88867,1.33105-1.89258l-0.05566-0.38574L161.66309,278.73193z"/>
		<path fill="#A3A3A3" d="M164.73047,286.30225c0.10938-0.0459,0.23535-0.12695,0.3125-0.21191
			c0.06641-0.07373,0.1543-0.2124,0.16992-0.43896c0.02734-0.39551-0.19922-0.6875-0.57031-0.71289
			c-0.15527-0.01074-0.24805,0.0249-0.35742,0.12598c-0.12793,0.11133-0.20313,0.25586-0.2793,0.40088l-0.19434,0.37158
			c-0.11816,0.22559-0.23926,0.43359-0.41895,0.58984c-0.21875,0.18945-0.45703,0.25684-0.74414,0.2373
			c-0.73633-0.05078-1.1875-0.62988-1.13867-1.34717c0.01758-0.26367,0.09375-0.58838,0.38281-0.84521
			c0.20508-0.18408,0.48828-0.28516,0.73047-0.32227l0.08984,0.43945c-0.21094,0.01514-0.39648,0.09863-0.52344,0.20361
			c-0.18555,0.16211-0.24805,0.35596-0.2627,0.55908c-0.03613,0.54492,0.33496,0.82861,0.73535,0.85645
			c0.17969,0.01221,0.33984-0.03076,0.48047-0.16504c0.11523-0.10645,0.19824-0.25684,0.30664-0.45996l0.19336-0.34717
			c0.08301-0.15088,0.17969-0.34229,0.36523-0.50977c0.17969-0.16162,0.37207-0.25098,0.67188-0.22998
			c0.61621,0.04248,0.99609,0.54346,0.95117,1.18945c-0.01758,0.24561-0.07813,0.43994-0.22363,0.62793
			c-0.11816,0.1543-0.29004,0.28076-0.46875,0.3584L164.73047,286.30225z"/>
		<path fill="#A3A3A3" d="M162.87109,288.729l2.49414-0.84424l-0.10156,0.50684l-1.95117,0.65137l1.55078,1.36035l-0.10059,0.50684
			l-1.97754-1.74561l-1.68945-0.33594l0.08789-0.43555L162.87109,288.729z"/>
		<path fill="#A3A3A3" d="M160.62988,290.94287l3.91113,1.44336l-4.14648,1.79443l2.9082,1.07373l-0.15234,0.41602l-3.92383-1.44727
			l4.14648-1.79443l-2.89746-1.06934L160.62988,290.94287z"/>
		<path fill="#A3A3A3" d="M159.99414,299.6665c0.17188-0.04639,0.39746-0.13818,0.58203-0.2666
			c0.18848-0.13477,0.36328-0.31738,0.47949-0.52002c0.46191-0.80127,0.15723-1.76514-0.64355-2.22656
			c-0.94141-0.5415-1.85352-0.0498-2.21875,0.58496c-0.13574,0.23389-0.19922,0.50146-0.21094,0.7373
			c-0.01367,0.25488,0.03516,0.46973,0.06152,0.56836l-0.47949-0.27539c-0.05273-0.54346,0.11523-0.97998,0.26367-1.23975
			c0.59375-1.02979,1.81348-1.34521,2.81836-0.76758c1.0332,0.59521,1.35742,1.81348,0.75879,2.854
			c-0.12012,0.20801-0.37598,0.59326-0.93262,0.82666L159.99414,299.6665z"/>
	</g>
	
		<line fill="none" stroke="#A3A3A3" stroke-width="0.75" stroke-linecap="square" x1="184.53789" y1="117.47704" x2="184.53789" y2="113.22503"/>
	
		<line fill="none" stroke="#A3A3A3" stroke-width="0.75" stroke-linecap="square" x1="213.2607" y1="135.10318" x2="213.2607" y2="137.22919"/>
	
		<line fill="none" stroke="#A3A3A3" stroke-width="0.75" stroke-linecap="square" x1="211.9037" y1="135.10318" x2="213.2607" y2="135.10318"/>
	
		<line fill="none" stroke="#A3A3A3" stroke-width="0.75" stroke-linecap="square" x1="210.9037" y1="139.35516" x2="210.9037" y2="135.10318"/>
	<g>
		<path fill="#A3A3A3" d="M155.39453,214.33545h0.98242v-0.93408h0.3916v0.93408h0.9834v0.3584h-0.9834v0.93457h-0.3916v-0.93457
			h-0.98242V214.33545z"/>
		<path fill="#A3A3A3" d="M159.375,213.08057h-0.60742l0.21094-0.37988h0.79883v3.62305H159.375V213.08057z"/>
		<path fill="#A3A3A3" d="M160.47266,216.32373l1.32031-1.52637c0.09277-0.10889,0.33691-0.39648,0.42383-0.52686
			c0.16309-0.23389,0.20117-0.40771,0.20117-0.5542c0-0.40723-0.29297-0.70605-0.72266-0.70605
			c-0.25488,0-0.4668,0.11377-0.60254,0.32031c-0.07129,0.10889-0.11426,0.24463-0.12012,0.4292h-0.40137
			c0.0166-0.36377,0.12988-0.58643,0.27148-0.74951c0.15137-0.17383,0.40723-0.36963,0.8584-0.36963
			c0.64063,0,1.11914,0.45654,1.11914,1.08105c0,0.24463-0.07031,0.46729-0.28809,0.77686
			c-0.15234,0.21191-0.34766,0.43457-0.49512,0.60303l-0.75391,0.85303h1.53125v0.36914H160.47266z"/>
	</g>
	<g>
		<circle fill="none" cx="135" cy="283.5" r="28.59473"/>
		<path fill="#A3A3A3" d="M110.23633,300.09229c-0.05664,0.10742-0.10352,0.25-0.10938,0.36523
			c-0.00391,0.09814,0.01563,0.26074,0.14844,0.44629c0.22852,0.32275,0.58984,0.4043,0.89258,0.18896
			c0.12695-0.09033,0.17578-0.17676,0.19629-0.32373c0.02832-0.16748-0.00488-0.32764-0.03809-0.48828l-0.08594-0.40967
			c-0.05273-0.25-0.08984-0.48877-0.05078-0.72266c0.04883-0.28467,0.18945-0.48828,0.42578-0.65527
			c0.60059-0.42773,1.31641-0.26807,1.73535,0.31787c0.15137,0.21533,0.2998,0.51514,0.23926,0.89648
			c-0.04102,0.27246-0.19531,0.53027-0.36035,0.71338l-0.34863-0.28223c0.15332-0.14648,0.24609-0.32861,0.27734-0.49121
			c0.04004-0.24219-0.03516-0.43164-0.1543-0.59717c-0.31641-0.44531-0.7832-0.4292-1.11133-0.19629
			c-0.14453,0.10449-0.24121,0.23877-0.26563,0.43213c-0.02148,0.15576,0.00977,0.32422,0.05371,0.55127l0.07227,0.39063
			c0.03223,0.16846,0.07813,0.37891,0.04004,0.62598c-0.03613,0.23926-0.12891,0.42969-0.37305,0.604
			c-0.50293,0.3584-1.11328,0.2124-1.49023-0.31543c-0.14258-0.20068-0.21875-0.38965-0.22656-0.62744
			c-0.00586-0.19434,0.04688-0.40088,0.13672-0.5752L110.23633,300.09229z"/>
		<path fill="#A3A3A3" d="M110.33203,294.28223c0.17578,0.1001,0.58105,0.34961,0.86328,0.91992
			c0.51172,1.03369,0.13281,2.25977-0.93359,2.7876c-1.07129,0.52881-2.27051,0.0835-2.78125-0.95068
			c-0.50977-1.02832-0.1377-2.25684,0.93359-2.78662c0.6582-0.32471,1.21289-0.23096,1.53711-0.13037l0.2832-0.79639l0.25586,0.5166
			L110.33203,294.28223z M109.80273,294.55127c-0.21289-0.0625-0.6582-0.15088-1.18652,0.11035
			c-0.82422,0.40723-1.15527,1.38867-0.75879,2.19092c0.39941,0.80811,1.37891,1.13477,2.20313,0.72754
			c0.82324-0.40771,1.15723-1.38379,0.75781-2.19141c-0.11133-0.22656-0.30859-0.49023-0.63086-0.67969l-0.46484,1.30859
			l-0.25586-0.5166L109.80273,294.55127z"/>
		<path fill="#A3A3A3" d="M108.25684,292.34375c0.32129-0.09424,0.67285-0.19775,0.84277-0.57861
			c0.08594-0.19385,0.0957-0.48389,0.03125-0.69629c-0.0625-0.21338-0.22461-0.45264-0.40234-0.56934
			c-0.34863-0.22852-0.69922-0.12549-1.02246-0.03174l-2.35254,0.69043l-0.125-0.42578l2.46777-0.72412
			c0.32324-0.09424,0.64355-0.15039,0.99219-0.02783c0.38379,0.13721,0.70313,0.48096,0.84668,0.97021
			c0.14258,0.48877,0.06055,0.95117-0.18945,1.27344c-0.22656,0.2915-0.52734,0.41748-0.84961,0.51172l-2.46875,0.72363
			l-0.12402-0.42578L108.25684,292.34375z"/>
		<path fill="#A3A3A3" d="M107.39453,286.26855l0.22266,1.68994l1.17969,0.33008l0.06445,0.4873l-4.39844-1.28174l3.92578-2.32471
			l0.06445,0.48828L107.39453,286.26855z M107,286.49561l-1.5,0.875l1.67773,0.46973L107,286.49561z"/>
		<path fill="#A3A3A3" d="M104.38477,283.6167c0-0.27051,0.02051-0.67285,0.22461-0.97168
			c0.15723-0.23389,0.46484-0.43652,0.8916-0.43506c0.6123,0.00293,1.06152,0.40723,1.09961,1.01367l1.7959-1.26465L108.39453,282.5
			l-1.75977,1.21045v0.11426l1.75391,0.0083l-0.00293,0.44385l-4.00488-0.01758L104.38477,283.6167z M106.2373,283.82324
			l0.00195-0.28223c0.00293-0.55273-0.25879-0.88379-0.72852-0.88623c-0.22168-0.00098-0.44434,0.06396-0.59082,0.31543
			c-0.10254,0.17969-0.11523,0.38428-0.11621,0.57666l-0.00098,0.26953L106.2373,283.82324z"/>
		<path fill="#A3A3A3" d="M105.21289,278.39697l-0.21191,1.61816l1.17676,0.1543l0.20703-1.57129l0.41504,0.05469l-0.2041,1.5708
			l1.54102,0.20166l0.21094-1.61865l0.41797,0.05518l-0.26953,2.05859l-3.96973-0.51953l0.26855-2.05908L105.21289,278.39697z"/>
		<path fill="#A3A3A3" d="M107.5127,277.53564l0.30566-1.28223l0.43262,0.10352l-0.30762,1.28223L107.5127,277.53564z"/>
		<path fill="#A3A3A3" d="M108.00195,270.76807c-0.12012,0.00586-0.2666,0.04053-0.36914,0.09326
			c-0.08594,0.04736-0.2168,0.14795-0.30859,0.35693c-0.1582,0.36279-0.04492,0.71436,0.29492,0.86475
			c0.14355,0.0625,0.24414,0.06055,0.38086,0.00293c0.15723-0.06104,0.27832-0.17236,0.39844-0.2832l0.30957-0.28418
			c0.1875-0.17285,0.37402-0.32764,0.5957-0.41309c0.27051-0.10498,0.5166-0.08691,0.78027,0.02881
			c0.67676,0.29785,0.9082,0.99609,0.61719,1.65527c-0.10742,0.24219-0.28906,0.52295-0.64844,0.6665
			c-0.25586,0.104-0.55664,0.10303-0.79883,0.05566l0.06445-0.44434c0.20508,0.05713,0.40918,0.04199,0.56445-0.01465
			c0.22949-0.08887,0.35352-0.25098,0.43652-0.4375c0.21973-0.50049-0.03418-0.89404-0.40234-1.05615
			c-0.16504-0.07227-0.3291-0.08594-0.50879-0.00684c-0.14453,0.06006-0.27344,0.17432-0.44629,0.32813l-0.29883,0.26172
			c-0.12793,0.11377-0.28613,0.26172-0.51855,0.35596c-0.22266,0.09131-0.43457,0.10986-0.70898-0.01123
			c-0.56641-0.24854-0.75488-0.84961-0.49316-1.44336c0.09961-0.2251,0.22363-0.3877,0.42285-0.51563
			c0.16602-0.10449,0.37012-0.16602,0.56543-0.17773L108.00195,270.76807z"/>
		<path fill="#A3A3A3" d="M111.87891,268.13184l-0.90234,1.44531l0.70313,1.00439l-0.25977,0.41699l-2.58398-3.78125
			l4.50684,0.69629l-0.26074,0.41748L111.87891,268.13184z M111.42969,268.05713l-1.71484-0.27686l0.99805,1.42725
			L111.42969,268.05713z"/>
		<path fill="#A3A3A3" d="M110.64844,264.76416l2.94336,1.21924l-1.55078-3.07813l3.18359,1.25732l-1.45313-2.87939l0.32813-0.3667
			l2.01758,4.06982l-3.17578-1.26611l1.54688,3.08252l-4.16797-1.67188L110.64844,264.76416z"/>
	</g>
	
		<line fill="none" stroke="#A3A3A3" stroke-width="0.75" stroke-linecap="square" x1="159.23297" y1="162.12016" x2="162.24496" y2="158.14616"/>
	<g>
		<circle fill="none" cx="183.01788" cy="44.24548" r="14.57799"/>
		
			<path fill="#A3A3A3" stroke="#A3A3A3" stroke-width="0.25" stroke-linecap="round" stroke-linejoin="round" stroke-miterlimit="10" d="
			M166.24805,35.74021l3.34863,1.72266l0.53027-1.03223l0.39258,0.20215l-0.74414,1.44727l-3.74121-1.92383L166.24805,35.74021z"/>
		
			<path fill="#A3A3A3" stroke="#A3A3A3" stroke-width="0.25" stroke-linecap="round" stroke-linejoin="round" stroke-miterlimit="10" d="
			M169.2168,32.07811l-1.04492,1.35742l0.98828,0.76074l1.01367-1.31641l0.34863,0.26953l-1.01465,1.31641l1.29199,0.99512
			l1.0459-1.35645l0.34961,0.26855l-1.33008,1.72559l-3.32715-2.5625l1.3291-1.72656L169.2168,32.07811z"/>
		
			<path fill="#A3A3A3" stroke="#A3A3A3" stroke-width="0.25" stroke-linecap="round" stroke-linejoin="round" stroke-miterlimit="10" d="
			M170.10156,30.52244l2.96387,1.70703l-1.1416-3.22363l0.39648-0.33105l1.54297,4.51465l-4.1582-2.33691L170.10156,30.52244z"/>
		
			<path fill="#A3A3A3" stroke="#A3A3A3" stroke-width="0.25" stroke-linecap="round" stroke-linejoin="round" stroke-miterlimit="10" d="
			M175.77051,27.31736l-1.52832,0.77832l0.56641,1.1123l1.4834-0.75488l0.2002,0.39258l-1.4834,0.75586l0.74023,1.45508
			l1.52832-0.77832l0.20117,0.39453l-1.94531,0.98926l-1.90625-3.74805l1.94336-0.98926L175.77051,27.31736z"/>
		
			<path fill="#A3A3A3" stroke="#A3A3A3" stroke-width="0.25" stroke-linecap="round" stroke-linejoin="round" stroke-miterlimit="10" d="
			M177.54785,26.24705l1.07031,3.60156l1.11035-0.33008l0.125,0.42285l-1.55664,0.46191l-1.19531-4.02441L177.54785,26.24705z"/>
		
			<path fill="#A3A3A3" stroke="#A3A3A3" stroke-width="0.25" stroke-linecap="round" stroke-linejoin="round" stroke-miterlimit="10" d="
			M182.82813,27.35643l1.97949,0.0918l-0.03027,0.66504l-1.97949-0.0918L182.82813,27.35643z"/>
		
			<path fill="#A3A3A3" stroke="#A3A3A3" stroke-width="0.25" stroke-linecap="round" stroke-linejoin="round" stroke-miterlimit="10" d="
			M190.83496,29.46482l1.5625,0.79395l-0.0459,0.08984c-0.21094,0.41602-0.5625,0.80273-0.96094,1.00391
			c-0.19043,0.09473-0.87695,0.4043-1.7373-0.0332c-1.11328-0.56543-1.51465-1.83594-0.96094-2.92676
			s1.82324-1.51465,2.94043-0.94629c0.36035,0.18262,0.73633,0.48633,0.95898,0.95313
			c0.10352,0.21387,0.17578,0.46289,0.20801,0.66406l-0.45215,0.12402c-0.03027-0.20703-0.08398-0.4043-0.15723-0.56738
			c-0.10547-0.23828-0.30176-0.5498-0.75098-0.77734c-0.9043-0.45996-1.88086-0.09961-2.32227,0.77148
			c-0.51953,1.02441,0.0332,1.95508,0.74219,2.31445c0.5,0.25391,1.06055,0.2207,1.46582-0.04688
			c0.12793-0.08398,0.29199-0.22852,0.42285-0.45801l-1.11328-0.56445L190.83496,29.46482z"/>
		
			<path fill="#A3A3A3" stroke="#A3A3A3" stroke-width="0.25" stroke-linecap="round" stroke-linejoin="round" stroke-miterlimit="10" d="
			M194.4873,33.36619l-1.30176-1.22754l-1.17969,0.51758l-0.375-0.35449l4.42773-1.87891l-1.65039,4.49707l-0.37598-0.35449
			L194.4873,33.36619z M194.65625,32.92088l0.64063-1.70898l-1.67676,0.73145L194.65625,32.92088z"/>
		
			<path fill="#A3A3A3" stroke="#A3A3A3" stroke-width="0.25" stroke-linecap="round" stroke-linejoin="round" stroke-miterlimit="10" d="
			M198.21289,33.93943l-3.08789,2.14941l-0.26758-0.38281l3.08887-2.15039l-0.58301-0.83691l0.36133-0.25293l1.43359,2.05859
			l-0.3623,0.25195L198.21289,33.93943z"/>
		
			<path fill="#A3A3A3" stroke="#A3A3A3" stroke-width="0.25" stroke-linecap="round" stroke-linejoin="round" stroke-miterlimit="10" d="
			M200.29883,37.9658l-0.68555-1.57031l-1.14258,0.5l0.66602,1.52246l-0.4043,0.17676l-0.66504-1.52344l-1.49512,0.65234
			l0.68555,1.57031l-0.4043,0.17578l-0.87109-1.99707l3.84961-1.68066l0.87109,1.99707L200.29883,37.9658z"/>
	</g>
	<g>
		<circle fill="none" cx="183.01788" cy="44.24548" r="13.74777"/>
		
			<path fill="#A3A3A3" stroke="#A3A3A3" stroke-width="0.25" stroke-linecap="round" stroke-linejoin="round" stroke-miterlimit="10" d="
			M175.6582,57.02537l-2.03613,3.40332l-0.37793-0.22607l2.03613-3.40381L175.6582,57.02537z"/>
		
			<path fill="#A3A3A3" stroke="#A3A3A3" stroke-width="0.25" stroke-linecap="round" stroke-linejoin="round" stroke-miterlimit="10" d="
			M175.52734,61.49021l1.29004-3.92285l1.92285,4.04102l0.95898-2.91748l0.41797,0.13721l-1.29297,3.93311l-1.92383-4.04004
			l-0.95508,2.90527L175.52734,61.49021z"/>
		
			<path fill="#A3A3A3" stroke="#A3A3A3" stroke-width="0.25" stroke-linecap="round" stroke-linejoin="round" stroke-miterlimit="10" d="
			M182.10938,58.97215c0.39844,0.02051,0.72852,0.08545,0.98242,0.33105c0.27832,0.26514,0.33105,0.61963,0.31836,0.86865
			c-0.0293,0.55859-0.41016,1.09229-1.3125,1.04541l-0.38574-0.021l-0.09082,1.72168l-0.43945-0.02295l0.20898-3.96143
			L182.10938,58.97215z M181.73438,60.78025l0.36133,0.01904c0.52344,0.02734,0.85156-0.21631,0.87598-0.6748
			c0.0332-0.62891-0.55176-0.71973-0.83691-0.73486l-0.32617-0.0166L181.73438,60.78025z"/>
		
			<path fill="#A3A3A3" stroke="#A3A3A3" stroke-width="0.25" stroke-linecap="round" stroke-linejoin="round" stroke-miterlimit="10" d="
			M185.21094,61.31834c0.06055,0.32715,0.12695,0.68359,0.48633,0.89063c0.18164,0.104,0.46777,0.14258,0.68359,0.10205
			c0.2168-0.04004,0.46875-0.17822,0.60156-0.34229c0.26172-0.32031,0.19531-0.67676,0.13477-1.00488l-0.44531-2.39209
			l0.43359-0.08057l0.46582,2.50977c0.06152,0.32666,0.08496,0.64941-0.07129,0.98145
			c-0.17383,0.36523-0.5459,0.64648-1.04297,0.7373c-0.49609,0.09229-0.94434-0.03564-1.23828-0.31396
			c-0.26465-0.25391-0.3584-0.5625-0.41895-0.88965l-0.4668-2.50977l0.43262-0.08057L185.21094,61.31834z"/>
		
			<path fill="#A3A3A3" stroke="#A3A3A3" stroke-width="0.25" stroke-linecap="round" stroke-linejoin="round" stroke-miterlimit="10" d="
			M189.36719,58.03416l1.43945,3.24072l-0.40039,0.1792l-1.44141-3.24023l-0.87891,0.38965l-0.16992-0.37891l2.16016-0.96094
			l0.16992,0.37988L189.36719,58.03416z"/>
	</g>
</g>
</svg>
