<?xml version="1.0" encoding="utf-8"?>
<!-- Generator: Adobe Illustrator 24.0.2, SVG Export Plug-In . SVG Version: 6.00 Build 0)  -->
<svg version="1.0" id="Layer_1" xmlns="http://www.w3.org/2000/svg" xmlns:xlink="http://www.w3.org/1999/xlink" x="0px" y="0px"
	 width="270px" height="380px" viewBox="0 0 270 380" enable-background="new 0 0 270 380" xml:space="preserve">
<g id="_x32_">
	<rect y="-0.00002" fill="none" width="270" height="380"/>
	<g>
		<circle fill="#262424" stroke="#606266" stroke-width="0.75" stroke-miterlimit="10" cx="83.5" cy="145.5" r="34.93385"/>
		
			<line fill="none" stroke="#606266" stroke-width="0.75" stroke-miterlimit="10" x1="83.5" y1="145.5" x2="58.79808" y2="170.20192"/>
		
			<line fill="none" stroke="#606266" stroke-width="0.5" stroke-miterlimit="10" x1="83.5" y1="145.5" x2="50.8044" y2="157.82994"/>
		
			<line fill="none" stroke="#606266" stroke-width="0.5" stroke-miterlimit="10" x1="83.5" y1="145.5" x2="116.19559" y2="157.82994"/>
		
			<line fill="none" stroke="#606266" stroke-width="0.75" stroke-miterlimit="10" x1="83.5" y1="145.5" x2="108.20195" y2="170.20195"/>
		<circle fill="#262424" stroke="#606266" stroke-width="0.75" stroke-miterlimit="10" cx="83.5" cy="145.5" r="23.5"/>
	</g>
	<g>
		<circle fill="#262424" stroke="#606266" stroke-width="0.5" stroke-miterlimit="10" cx="186.44551" cy="145.5" r="34.93385"/>
		<circle fill="#262424" stroke="#606266" stroke-width="0.75" stroke-miterlimit="10" cx="186.44551" cy="145.5" r="34.93385"/>
		
			<line fill="none" stroke="#606266" stroke-width="0.5" stroke-miterlimit="10" x1="186.44551" y1="145.5" x2="154.08533" y2="157.70346"/>
		
			<line fill="none" stroke="#606266" stroke-width="0.5" stroke-miterlimit="10" x1="186.44551" y1="145.5" x2="218.80569" y2="157.70346"/>
		
			<line fill="none" stroke="#606266" stroke-width="0.75" stroke-miterlimit="10" x1="186.44551" y1="145.5" x2="161.74948" y2="170.19603"/>
		
			<line fill="none" stroke="#606266" stroke-width="0.75" stroke-miterlimit="10" x1="186.44551" y1="145.5" x2="211.14154" y2="170.19603"/>
		<circle fill="#262424" stroke="#606266" stroke-width="0.75" stroke-miterlimit="10" cx="186.44551" cy="145.5" r="23.5"/>
	</g>
	<g>
		<circle fill="#262424" stroke="#606266" stroke-width="0.5" stroke-miterlimit="10" cx="135" cy="198.5" r="34.93385"/>
		
			<line fill="none" stroke="#606266" stroke-width="0.75" stroke-miterlimit="10" x1="135" y1="198.5" x2="110.59309" y2="222.90691"/>
		
			<line fill="none" stroke="#606266" stroke-width="0.5" stroke-miterlimit="10" x1="135" y1="198.5" x2="102.63982" y2="210.70346"/>
		
			<line fill="none" stroke="#606266" stroke-width="0.5" stroke-miterlimit="10" x1="135" y1="198.5" x2="127.90034" y2="164.28827"/>
		
			<line fill="none" stroke="#606266" stroke-width="0.5" stroke-miterlimit="10" x1="135" y1="198.5" x2="142.09966" y2="164.28824"/>
		
			<line fill="none" stroke="#606266" stroke-width="0.5" stroke-miterlimit="10" x1="135" y1="198.5" x2="167.69551" y2="210.82991"/>
		
			<line fill="none" stroke="#606266" stroke-width="0.75" stroke-miterlimit="10" x1="135" y1="198.5" x2="159.70186" y2="223.20186"/>
		<circle fill="#262424" stroke="#606266" stroke-width="0.75" stroke-miterlimit="10" cx="135" cy="198.5" r="23.5"/>
	</g>
	<g>
		<circle fill="#262424" stroke="#606266" stroke-width="0.5" stroke-miterlimit="10" cx="135" cy="283.5" r="34.93385"/>
		
			<line fill="none" stroke="#606266" stroke-width="0.75" stroke-miterlimit="10" x1="135" y1="283.5" x2="110.30396" y2="308.19604"/>
		
			<line fill="none" stroke="#606266" stroke-width="0.75" stroke-miterlimit="10" x1="135" y1="283.5" x2="159.69603" y2="308.19604"/>
		<line fill="none" stroke="#606266" stroke-width="0.5" stroke-miterlimit="10" x1="135" y1="248.56616" x2="135" y2="283.5"/>
		<circle fill="#262424" stroke="#606266" stroke-width="0.75" stroke-miterlimit="10" cx="135" cy="283.5" r="23.5"/>
	</g>
	<g>
		<circle fill="none" cx="71" cy="351" r="14.578"/>
		
			<path fill="#A3A3A3" stroke="#A3A3A3" stroke-width="0.25" stroke-linecap="round" stroke-linejoin="round" stroke-miterlimit="10" d="
			M56.65625,339.54004l2.96875,2.30273l-0.28613,0.36914l-2.96973-2.30371l-0.625,0.80566l-0.34766-0.27002l1.53516-1.98047
			l0.34863,0.271L56.65625,339.54004z"/>
		
			<path fill="#A3A3A3" stroke="#A3A3A3" stroke-width="0.25" stroke-linecap="round" stroke-linejoin="round" stroke-miterlimit="10" d="
			M58.21777,337.20752l2.89746,3.03955l-0.33594,0.32129l-2.89844-3.03955L58.21777,337.20752z"/>
		
			<path fill="#A3A3A3" stroke="#A3A3A3" stroke-width="0.25" stroke-linecap="round" stroke-linejoin="round" stroke-miterlimit="10" d="
			M59.62402,335.95068l0.71973-0.46387c0.35547-0.229,0.88184-0.51563,1.56934-0.42676
			c0.49707,0.06152,1.06738,0.33008,1.47754,0.9668c0.47656,0.74072,0.36914,1.37402,0.25391,1.75488
			c-0.14648,0.48291-0.39941,0.83447-1.0293,1.24072l-0.71484,0.46045L59.62402,335.95068z M62.05273,338.85938l0.34473-0.22217
			c0.28027-0.18066,0.64648-0.46143,0.80664-0.96924c0.12207-0.39307,0.1084-0.87891-0.21582-1.38232
			c-0.54688-0.84814-1.49512-1.01611-2.38965-0.43896l-0.34473,0.22266L62.05273,338.85938z"/>
		
			<path fill="#A3A3A3" stroke="#A3A3A3" stroke-width="0.25" stroke-linecap="round" stroke-linejoin="round" stroke-miterlimit="10" d="
			M66.12109,333.24854l-1.61719,0.56006l0.4082,1.17773l1.57031-0.54395l0.14355,0.4165l-1.57031,0.54395l0.5332,1.54102
			l1.61816-0.56104l0.14453,0.4165l-2.05859,0.71289l-1.37402-3.96729l2.05762-0.71387L66.12109,333.24854z"/>
		
			<path fill="#A3A3A3" stroke="#A3A3A3" stroke-width="0.25" stroke-linecap="round" stroke-linejoin="round" stroke-miterlimit="10" d="
			M69.60938,333.05566c-0.07031-0.10596-0.17969-0.21973-0.2832-0.28467c-0.08789-0.05127-0.24805-0.11523-0.48633-0.08691
			c-0.41309,0.05078-0.66992,0.34229-0.62305,0.72998c0.01953,0.1626,0.0752,0.25146,0.2002,0.34375
			c0.13965,0.10986,0.30566,0.16064,0.46973,0.21045l0.42188,0.12695c0.25684,0.07715,0.49609,0.1626,0.69238,0.31689
			c0.23926,0.18701,0.35645,0.41992,0.3916,0.7207c0.09375,0.77002-0.41406,1.35205-1.16602,1.44287
			c-0.27539,0.03369-0.62695,0.01855-0.94824-0.229c-0.23145-0.1748-0.39063-0.44775-0.47754-0.69092l0.43555-0.18018
			c0.05859,0.21631,0.18066,0.3916,0.31445,0.50195c0.2041,0.15967,0.41602,0.18555,0.62891,0.15918
			c0.57031-0.06885,0.79004-0.50781,0.73926-0.92773c-0.02246-0.18701-0.09863-0.34375-0.26465-0.46289
			c-0.13281-0.09863-0.30469-0.15479-0.53613-0.22754l-0.39648-0.13086c-0.17188-0.05518-0.38965-0.11768-0.59863-0.27588
			c-0.20313-0.15479-0.33203-0.33545-0.37012-0.64893c-0.07715-0.64355,0.36426-1.13623,1.04004-1.21826
			c0.25781-0.02979,0.4707-0.00537,0.69336,0.1084c0.18164,0.09131,0.3457,0.24365,0.46289,0.41357L69.60938,333.05566z"/>
		
			<path fill="#A3A3A3" stroke="#A3A3A3" stroke-width="0.25" stroke-linecap="round" stroke-linejoin="round" stroke-miterlimit="10" d="
			M76.47949,333.42676l-1.40723-0.34961l-0.30078,1.20508l1.35938,0.33838l-0.10742,0.42822l-1.3584-0.33789l-0.50293,2.02002
			l-0.45313-0.11377l1.0166-4.08203l1.86035,0.46436L76.47949,333.42676z"/>
		
			<path fill="#A3A3A3" stroke="#A3A3A3" stroke-width="0.25" stroke-linecap="round" stroke-linejoin="round" stroke-miterlimit="10" d="
			M77.09375,335.28711c0.60352-1.10059,1.90234-1.43848,2.96484-0.85693c1.06152,0.58203,1.47559,1.85986,0.87305,2.95947
			c-0.59961,1.09473-1.89648,1.44189-2.96387,0.85742C76.90039,337.66113,76.49414,336.38184,77.09375,335.28711z
			 M77.51367,335.51758c-0.46289,0.8457-0.16406,1.88721,0.66602,2.34229c0.8291,0.45361,1.86816,0.14648,2.33203-0.7002
			c0.46289-0.84619,0.16406-1.8877-0.66602-2.34131C79.01563,334.36377,77.97656,334.67188,77.51367,335.51758z"/>
		
			<path fill="#A3A3A3" stroke="#A3A3A3" stroke-width="0.25" stroke-linecap="round" stroke-linejoin="round" stroke-miterlimit="10" d="
			M83.63379,337.06787l-2.5498,2.77148l0.85352,0.78516l-0.29785,0.32471l-1.19824-1.10059l2.84863-3.09619L83.63379,337.06787z"/>
		
			<path fill="#A3A3A3" stroke="#A3A3A3" stroke-width="0.25" stroke-linecap="round" stroke-linejoin="round" stroke-miterlimit="10" d="
			M85.52441,338.97363l0.49316,0.70117c0.24414,0.34424,0.55273,0.85938,0.49219,1.55029
			c-0.04199,0.49951-0.28711,1.08154-0.90625,1.5166c-0.72168,0.50928-1.35938,0.42529-1.74414,0.32764
			c-0.48926-0.12695-0.85156-0.36523-1.2832-0.97803l-0.49023-0.69678L85.52441,338.97363z M82.7168,341.52246l0.23438,0.33447
			c0.19336,0.27295,0.48828,0.62793,1.00391,0.7666c0.39746,0.10547,0.88281,0.07227,1.37305-0.27295
			c0.82422-0.58105,0.95313-1.53564,0.33984-2.40625l-0.23633-0.33594L82.7168,341.52246z"/>
	</g>
	<g>
		<circle fill="none" cx="199.5" cy="351.03378" r="14.578"/>
		
			<path fill="#A3A3A3" stroke="#A3A3A3" stroke-width="0.25" stroke-linecap="round" stroke-linejoin="round" stroke-miterlimit="10" d="
			M182.75879,342.13721l3.21191,0.91797l-1.98242-3.02051l3.46484,0.92969l-1.8584-2.82568l0.2998-0.41992l2.58594,3.99707
			l-3.45801-0.93994l1.97852,3.02686l-4.54102-1.24414L182.75879,342.13721z"/>
		
			<path fill="#A3A3A3" stroke="#A3A3A3" stroke-width="0.25" stroke-linecap="round" stroke-linejoin="round" stroke-miterlimit="10" d="
			M187.84473,336.26416c0.22559-0.1709,0.57422-0.41162,0.9541-0.43164c0.29492-0.01855,0.66016,0.10645,0.93164,0.46387
			c0.38867,0.51123,0.33984,1.14209-0.14063,1.56348l2.20117,0.68555l-0.45117,0.34277l-2.13281-0.68848l-0.0957,0.07129
			l1.11523,1.46631l-0.37109,0.28174l-2.54688-3.3457L187.84473,336.26416z M188.85938,337.94043l0.23633-0.17969
			c0.46094-0.35059,0.56934-0.78174,0.27148-1.17236c-0.1416-0.18652-0.33789-0.3291-0.64063-0.28906
			c-0.21484,0.0293-0.39258,0.14893-0.55371,0.271l-0.22559,0.17188L188.85938,337.94043z"/>
		
			<path fill="#A3A3A3" stroke="#A3A3A3" stroke-width="0.25" stroke-linecap="round" stroke-linejoin="round" stroke-miterlimit="10" d="
			M194.00293,336.20068l-1.63965,0.71631l0.01172,1.28564l-0.47266,0.20703l0.01074-4.80762l3.48633,3.28076l-0.47363,0.20654
			L194.00293,336.20068z M193.6582,335.86963l-1.31836-1.25879l0.01465,1.82764L193.6582,335.86963z"/>
		
			<path fill="#A3A3A3" stroke="#A3A3A3" stroke-width="0.25" stroke-linecap="round" stroke-linejoin="round" stroke-miterlimit="10" d="
			M195.9707,332.55518c0.41504-0.0752,0.77051-0.08936,1.09375,0.10107c0.35156,0.20459,0.49219,0.55664,0.54102,0.81738
			c0.10547,0.58301-0.1543,1.2251-1.09668,1.39795l-0.40234,0.07324l0.32813,1.79785l-0.45801,0.0835l-0.75586-4.13379
			L195.9707,332.55518z M196.02734,334.51074l0.37695-0.06885c0.5459-0.09912,0.82422-0.43213,0.7373-0.90967
			c-0.12012-0.65674-0.74512-0.60693-1.04199-0.55273l-0.3418,0.06299L196.02734,334.51074z"/>
		
			<path fill="#A3A3A3" stroke="#A3A3A3" stroke-width="0.25" stroke-linecap="round" stroke-linejoin="round" stroke-miterlimit="10" d="
			M200.74512,333.08203c-0.05371-0.11426-0.14551-0.24316-0.2373-0.3208c-0.08008-0.06494-0.22949-0.15137-0.46875-0.15723
			c-0.41406-0.01025-0.71094,0.24072-0.72168,0.62988c-0.00293,0.16455,0.03809,0.25977,0.14844,0.37012
			c0.12305,0.12793,0.27832,0.20215,0.43359,0.27539l0.39941,0.18701c0.24219,0.11279,0.46484,0.23193,0.63672,0.41211
			c0.20898,0.22021,0.29102,0.4668,0.2832,0.76953c-0.01953,0.77393-0.60547,1.27539-1.36133,1.25684
			c-0.27637-0.00732-0.62109-0.07324-0.9043-0.36475c-0.20117-0.20557-0.32031-0.49854-0.37012-0.75195l0.45605-0.11328
			c0.02539,0.22021,0.12207,0.41162,0.23828,0.54053c0.17773,0.18701,0.38379,0.24219,0.59766,0.24805
			c0.57324,0.01465,0.85352-0.38721,0.86523-0.80859c0.00488-0.18896-0.04785-0.35498-0.19531-0.49658
			c-0.11719-0.1167-0.27832-0.19531-0.49609-0.30273l-0.37305-0.18604c-0.16211-0.07959-0.36719-0.17285-0.55176-0.35986
			c-0.17676-0.18115-0.28027-0.37891-0.27148-0.69336c0.0166-0.64795,0.52441-1.06982,1.2041-1.05273
			c0.25781,0.00732,0.46484,0.06348,0.66895,0.20605c0.16699,0.11719,0.30762,0.29199,0.39746,0.47656L200.74512,333.08203z"/>
		
			<path fill="#A3A3A3" stroke="#A3A3A3" stroke-width="0.25" stroke-linecap="round" stroke-linejoin="round" stroke-miterlimit="10" d="
			M207.46875,334.44678l-1.33984-0.55029l-0.4707,1.14844l1.29297,0.53076l-0.16699,0.40771l-1.29395-0.53076l-0.78906,1.92285
			l-0.43164-0.17627l1.5957-3.88721l1.77148,0.72656L207.46875,334.44678z"/>
		
			<path fill="#A3A3A3" stroke="#A3A3A3" stroke-width="0.25" stroke-linecap="round" stroke-linejoin="round" stroke-miterlimit="10" d="
			M207.80078,336.37598c0.75488-1.00098,2.08789-1.14746,3.05371-0.41943c0.96582,0.72852,1.19141,2.05078,0.43652,3.05078
			c-0.75,0.99658-2.08203,1.15186-3.05273,0.41992C207.26758,338.69482,207.05078,337.37158,207.80078,336.37598z
			 M208.18359,336.66357c-0.58105,0.77051-0.43457,1.8418,0.32031,2.41113c0.75391,0.56982,1.82422,0.41406,2.40527-0.35498
			c0.58008-0.77051,0.43457-1.84326-0.31934-2.41064C209.83496,335.73975,208.76367,335.89404,208.18359,336.66357z"/>
		
			<path fill="#A3A3A3" stroke="#A3A3A3" stroke-width="0.25" stroke-linecap="round" stroke-linejoin="round" stroke-miterlimit="10" d="
			M214.0293,339.10742l-2.92188,2.36377l0.72852,0.90088l-0.34375,0.27783l-1.02148-1.2627l3.26563-2.64209L214.0293,339.10742z"/>
		
			<path fill="#A3A3A3" stroke="#A3A3A3" stroke-width="0.25" stroke-linecap="round" stroke-linejoin="round" stroke-miterlimit="10" d="
			M215.60938,341.23975l0.3877,0.76416c0.19043,0.37646,0.4209,0.93018,0.26074,1.60303
			c-0.11328,0.48877-0.43945,1.02881-1.11523,1.37012c-0.78613,0.39746-1.4043,0.22266-1.77148,0.06934
			c-0.46484-0.19385-0.78809-0.48291-1.12598-1.15088l-0.38379-0.75928L215.60938,341.23975z M212.46484,343.35303l0.18555,0.36475
			c0.15039,0.29785,0.3916,0.69141,0.87988,0.90283c0.37793,0.16211,0.86328,0.19824,1.39746-0.07129
			c0.89844-0.45459,1.16406-1.38086,0.68359-2.33008l-0.18457-0.36572L212.46484,343.35303z"/>
	</g>
	<g>
		
			<ellipse transform="matrix(0.08248 -0.99659 0.99659 0.08248 7.76543 241.42732)" fill="none" cx="134.99962" cy="116.49633" rx="25.57993" ry="25.57996"/>
		<path fill="#A3A3A3" stroke="#A3A3A3" stroke-width="0.25" stroke-miterlimit="10" d="M106.62402,105.98779l4.39551,1.58887
			l-0.17578,0.48828l-4.39648-1.59033L106.62402,105.98779z"/>
		<path fill="#A3A3A3" stroke="#A3A3A3" stroke-width="0.25" stroke-miterlimit="10" d="M107.34863,104.21336l4.28418,1.85986
			l-0.20508,0.4751l-4.28516-1.85889L107.34863,104.21336z"/>
		<path fill="#A3A3A3" stroke="#A3A3A3" stroke-width="0.25" stroke-miterlimit="10" d="M111.64258,104.59666
			c0.08594-0.16797,0.30273-0.23877,0.47168-0.15332c0.16895,0.08691,0.23926,0.30322,0.15234,0.47119
			c-0.08496,0.16895-0.30176,0.23877-0.46973,0.15332C111.62695,104.9824,111.55664,104.76463,111.64258,104.59666z"/>
		<path fill="#A3A3A3" stroke="#A3A3A3" stroke-width="0.25" stroke-miterlimit="10" d="M109.89258,99.40527l3.48828,1.271
			l-1.95996-3.50488l3.77051,1.30273l-1.83887-3.27881l0.36426-0.44482l2.55371,4.63818l-3.76074-1.31396l1.95508,3.51074
			l-4.93652-1.73633L109.89258,99.40527z"/>
		<path fill="#A3A3A3" stroke="#A3A3A3" stroke-width="0.25" stroke-miterlimit="10" d="M118.65234,95.10693l-1.53125,1.26758
			l0.4082,1.37158l-0.44141,0.3667l-1.4668-5.13965l4.7334,2.43408l-0.44238,0.36426L118.65234,95.10693z M118.18359,94.85938
			l-1.7959-0.93945l0.57715,1.94824L118.18359,94.85938z"/>
		<path fill="#A3A3A3" stroke="#A3A3A3" stroke-width="0.25" stroke-miterlimit="10" d="M118.08203,91.37889l2.98438,2.34961
			l-0.74023-3.72412l0.48828-0.30029l0.97656,5.20605l-4.19727-3.23047L118.08203,91.37889z"/>
		<path fill="#A3A3A3" stroke="#A3A3A3" stroke-width="0.25" stroke-miterlimit="10" d="M124.22949,88.71484l-1.74219,0.7666
			l0.55859,1.26953l1.69043-0.74512l0.19824,0.44775l-1.69043,0.74463l0.72949,1.65869l1.74316-0.76709l0.19727,0.44873
			l-2.2168,0.97607l-1.88086-4.27246l2.21582-0.97607L124.22949,88.71484z"/>
		<path fill="#A3A3A3" stroke="#A3A3A3" stroke-width="0.25" stroke-miterlimit="10" d="M127.63867,88.09178
			c-0.0957-0.10352-0.23633-0.2085-0.36035-0.26074c-0.10645-0.04053-0.29395-0.08252-0.5498-0.00781
			c-0.44336,0.12891-0.67285,0.49463-0.55176,0.91211c0.05078,0.17432,0.12793,0.26221,0.28223,0.34033
			c0.17188,0.09619,0.3623,0.12158,0.55273,0.146l0.48438,0.06348c0.29492,0.03857,0.57227,0.08887,0.81544,0.22314
			c0.2959,0.1626,0.46582,0.39746,0.55957,0.72021c0.24023,0.82666-0.21191,1.55615-1.01953,1.79102
			c-0.29492,0.08643-0.68262,0.1333-1.08008-0.08008c-0.28516-0.15088-0.50879-0.42188-0.64746-0.67285l0.44531-0.2749
			c0.10254,0.22559,0.26758,0.39648,0.43457,0.49316c0.25195,0.13818,0.49023,0.12695,0.71777,0.06201
			c0.6123-0.17822,0.77441-0.69971,0.64355-1.15039c-0.05859-0.20117-0.16895-0.35889-0.37305-0.45996
			c-0.16309-0.0835-0.36133-0.11377-0.62891-0.15283l-0.45801-0.07129c-0.19824-0.03076-0.44727-0.05957-0.70605-0.1958
			c-0.25-0.13232-0.42383-0.30762-0.52148-0.64453c-0.20117-0.69287,0.19531-1.30957,0.9209-1.52051
			c0.27637-0.08105,0.51465-0.09082,0.77832-0.0083c0.2168,0.06885,0.42383,0.20557,0.58203,0.37158L127.63867,88.09178z"/>
		<path fill="#A3A3A3" stroke="#A3A3A3" stroke-width="0.25" stroke-miterlimit="10" d="M130.11719,88.54832l2.37305-0.32422
			l-0.25684-1.88135l0.51367-0.07031l0.63281,4.62939l-0.51465,0.06982l-0.30859-2.26221l-2.37305,0.32422l0.30859,2.26367
			l-0.5127,0.06982l-0.63281-4.62891l0.5127-0.07031L130.11719,88.54832z"/>
		<path fill="#A3A3A3" stroke="#A3A3A3" stroke-width="0.25" stroke-miterlimit="10" d="M137.03516,89.65331l-1.98633-0.07227
			l-0.6084,1.29346l-0.57324-0.02197l2.32813-4.80859l1.91016,4.96582l-0.57324-0.02051L137.03516,89.65331z M136.84961,89.15623
			l-0.71387-1.896l-0.86621,1.83789L136.84961,89.15623z"/>
		<path fill="#A3A3A3" stroke="#A3A3A3" stroke-width="0.25" stroke-miterlimit="10" d="M140.2666,86.70506
			c0.46191,0.08398,0.83691,0.20996,1.09766,0.53516c0.28516,0.34961,0.29297,0.77197,0.24121,1.06055
			c-0.11914,0.64648-0.6416,1.21338-1.68848,1.02197l-0.44629-0.08154l-0.36523,1.99756l-0.50977-0.09326l0.83789-4.59229
			L140.2666,86.70506z M139.55859,88.75977l0.41992,0.07715c0.60547,0.10986,1.02539-0.12598,1.12207-0.65723
			c0.13379-0.72852-0.53613-0.92188-0.86621-0.98193l-0.37891-0.07031L139.55859,88.75977z"/>
		<path fill="#A3A3A3" stroke="#A3A3A3" stroke-width="0.25" stroke-miterlimit="10" d="M143.36133,87.41697l-1.24805,4.49854
			l-0.5-0.13965l1.24902-4.49756L143.36133,87.41697z"/>
		<path fill="#A3A3A3" stroke="#A3A3A3" stroke-width="0.25" stroke-miterlimit="10" d="M143.13086,92.14697l1.91504-4.47217
			l1.84473,4.94043l1.42383-3.32764l0.47656,0.20361l-1.91992,4.48682l-1.8457-4.94092l-1.41797,3.31396L143.13086,92.14697z"/>
		<path fill="#A3A3A3" stroke="#A3A3A3" stroke-width="0.25" stroke-miterlimit="10" d="M151.10254,93.67918l1.60254,1.1001
			l-0.0625,0.09277c-0.29297,0.42676-0.73633,0.80078-1.20508,0.96338c-0.22266,0.07666-1.02246,0.31592-1.90527-0.28955
			c-1.1416-0.78418-1.39746-2.24023-0.62891-3.35889c0.76758-1.11963,2.22363-1.40039,3.37207-0.61279
			c0.36914,0.25342,0.73828,0.64258,0.91504,1.18896c0.08203,0.25098,0.125,0.53516,0.13184,0.76025l-0.51563,0.07031
			c-0.00195-0.23047-0.03418-0.45654-0.08984-0.64697c-0.08203-0.27686-0.25195-0.64746-0.71289-0.96436
			c-0.92773-0.6377-2.05273-0.3833-2.66699,0.51074c-0.71973,1.04932-0.24902,2.1543,0.47852,2.65283
			c0.51367,0.35205,1.13574,0.39746,1.62012,0.1626c0.15234-0.07373,0.35352-0.20752,0.53125-0.44189l-1.1416-0.78418
			L151.10254,93.67918z"/>
		<path fill="#A3A3A3" stroke="#A3A3A3" stroke-width="0.25" stroke-miterlimit="10" d="M154.68359,96.56297
			c1.05957-0.90234,2.53906-0.73877,3.40918,0.28223c0.87012,1.02246,0.79688,2.50977-0.2627,3.41113
			c-1.05273,0.89844-2.53418,0.74512-3.40918-0.28271C153.5459,98.94727,153.62988,97.46143,154.68359,96.56297z
			 M155.02832,96.96777c-0.81348,0.69434-0.91504,1.89063-0.23535,2.68848c0.68066,0.79932,1.87891,0.89014,2.69336,0.19678
			c0.81348-0.69434,0.91406-1.8916,0.23438-2.68994C157.04102,96.36521,155.84375,96.27488,155.02832,96.96777z"/>
		<path fill="#A3A3A3" stroke="#A3A3A3" stroke-width="0.25" stroke-miterlimit="10" d="M160.70117,102.33984
			c0.07617-0.11816,0.14453-0.27979,0.16309-0.41309c0.01367-0.11328,0.00684-0.30371-0.12793-0.5332
			c-0.23535-0.39746-0.64648-0.52832-1.01953-0.30762c-0.15723,0.09229-0.22168,0.1875-0.26074,0.35645
			c-0.04883,0.19238-0.02637,0.38086-0.00391,0.57129l0.05957,0.48438c0.03613,0.2959,0.05566,0.57666-0.01367,0.84473
			c-0.08398,0.32617-0.26953,0.54883-0.55859,0.71973c-0.74023,0.43848-1.55859,0.18213-1.98535-0.54102
			c-0.15625-0.26563-0.29785-0.62891-0.19043-1.06592c0.07617-0.3125,0.28125-0.59717,0.49023-0.79395l0.37695,0.36279
			c-0.19336,0.15527-0.31641,0.3584-0.37012,0.54395c-0.07129,0.27832-0.00293,0.50488,0.11816,0.70898
			c0.32422,0.5498,0.86914,0.57666,1.27246,0.33838c0.18066-0.10693,0.30566-0.25391,0.35254-0.47656
			c0.04102-0.17822,0.02148-0.37695-0.00781-0.64502l-0.04492-0.46143c-0.01953-0.19873-0.05273-0.44727,0.01563-0.73096
			c0.06543-0.27441,0.19141-0.48828,0.49219-0.66504c0.62109-0.36768,1.31738-0.13721,1.70215,0.51416
			c0.14551,0.24658,0.21484,0.47412,0.2002,0.75146c-0.01172,0.22656-0.09375,0.46094-0.21484,0.6543L160.70117,102.33984z"/>
		<path fill="#A3A3A3" stroke="#A3A3A3" stroke-width="0.25" stroke-miterlimit="10" d="M162.84082,107.40574
			c0.08301-0.19141,0.16113-0.46436,0.17676-0.72705c0.0127-0.26904-0.02832-0.56104-0.12988-0.81445
			c-0.40137-1-1.50293-1.41699-2.50293-1.0166c-1.17578,0.47021-1.38379,1.66211-1.06641,2.4541
			c0.11719,0.29297,0.31641,0.54395,0.52344,0.72412c0.22266,0.19775,0.45508,0.30859,0.56445,0.35498l-0.59766,0.23975
			c-0.53711-0.34326-0.81445-0.81201-0.94531-1.13721c-0.51465-1.28516,0.07813-2.63037,1.33105-3.13184
			c1.29199-0.51758,2.64063,0.06445,3.16113,1.36377c0.10352,0.26025,0.27148,0.77295,0.08301,1.45068L162.84082,107.40574z"/>
	</g>
	<g>
		<circle fill="none" cx="83.5" cy="145.5" r="28.59473"/>
		<path fill="#A3A3A3" stroke="#A3A3A3" stroke-width="0.25" stroke-linejoin="round" stroke-miterlimit="10" d="
			M76.99219,171.20166l-1.75684-0.54395l-0.4668,1.50391l1.69531,0.52637l-0.16602,0.53564l-1.69629-0.52734l-0.78125,2.521
			l-0.56543-0.17578l1.58105-5.09473l2.32227,0.72021L76.99219,171.20166z"/>
		<path fill="#A3A3A3" stroke="#A3A3A3" stroke-width="0.25" stroke-linejoin="round" stroke-miterlimit="10" d="M77.88477,173.6626
			c0.1543-1.58496,1.50195-2.62793,3.03223-2.47803c1.5293,0.14893,2.64941,1.43213,2.49512,3.01807
			c-0.15332,1.57715-1.49512,2.62842-3.03223,2.47852C78.8418,176.53027,77.73047,175.23975,77.88477,173.6626z M78.48926,173.72168
			c-0.11816,1.21875,0.75098,2.28516,1.94531,2.40137c1.19434,0.1167,2.25293-0.76025,2.37207-1.979
			s-0.74902-2.28613-1.94434-2.40234C79.66797,171.625,78.6084,172.50293,78.48926,173.72168z"/>
		<path fill="#A3A3A3" stroke="#A3A3A3" stroke-width="0.25" stroke-linejoin="round" stroke-miterlimit="10" d="
			M85.64453,171.30811l0.42578,4.75732l1.4668-0.13086l0.0498,0.55762l-2.05566,0.18408l-0.47559-5.31494L85.64453,171.30811z"/>
		<path fill="#A3A3A3" stroke="#A3A3A3" stroke-width="0.25" stroke-linejoin="round" stroke-miterlimit="10" d="
			M88.27734,171.01318l1.05273-0.27539c0.51953-0.13525,1.26953-0.27441,2.06348,0.10693
			c0.5752,0.271,1.1582,0.82178,1.40137,1.75195c0.2832,1.08447-0.09961,1.80518-0.38867,2.21973
			c-0.36719,0.52588-0.8125,0.84912-1.73438,1.08936l-1.0459,0.27393L88.27734,171.01318z M90.05762,175.4873l0.50293-0.13184
			c0.41113-0.10693,0.96484-0.30029,1.35938-0.8501c0.30176-0.42725,0.47852-1.01904,0.28613-1.75586
			c-0.32422-1.23877-1.40137-1.81836-2.71094-1.47607l-0.50391,0.13184L90.05762,175.4873z"/>
	</g>
	<g>
		<path fill="#A3A3A3" d="M54.98047,162.49512c0-1.00684,0.74414-1.75098,1.75977-1.75098s1.75879,0.74414,1.75879,1.75098
			c0,1.00781-0.75195,1.74316-1.75879,1.74316C55.73242,164.23828,54.98047,163.50293,54.98047,162.49512z M55.57227,162.49512
			c0,0.81543,0.57617,1.23145,1.16797,1.23145c0.59961,0,1.16699-0.42383,1.16699-1.23145
			c0-0.81543-0.55957-1.23926-1.16699-1.23926S55.57227,161.6875,55.57227,162.49512z"/>
		<path fill="#A3A3A3" d="M59.97266,161.35156v2.79102h-0.57617v-2.79102h-0.32031v-0.52734h0.32031v-1.44727
			c0-0.30371,0.02344-0.6875,0.32031-0.93555c0.16016-0.13574,0.39941-0.21582,0.66309-0.21582
			c0.20801,0,0.34375,0.04785,0.4082,0.07227v0.55957c-0.12012-0.04785-0.25586-0.07227-0.37598-0.07227
			c-0.12793,0-0.2793,0.03223-0.36719,0.17578c-0.07227,0.12012-0.07227,0.30371-0.07227,0.48047v1.38281h0.81543v0.52734H59.97266z
			"/>
		<path fill="#A3A3A3" d="M62.05273,161.35156v2.79102h-0.57617v-2.79102h-0.32031v-0.52734h0.32031v-1.44727
			c0-0.30371,0.02344-0.6875,0.32031-0.93555c0.16016-0.13574,0.39941-0.21582,0.66309-0.21582
			c0.20801,0,0.34375,0.04785,0.4082,0.07227v0.55957c-0.12012-0.04785-0.25586-0.07227-0.37598-0.07227
			c-0.12793,0-0.2793,0.03223-0.36719,0.17578c-0.07227,0.12012-0.07227,0.30371-0.07227,0.48047v1.38281h0.81543v0.52734H62.05273z
			"/>
	</g>
	<g>
		<circle fill="none" cx="186.44551" cy="145.5" r="28.59473"/>
		<path fill="#A3A3A3" stroke="#A3A3A3" stroke-width="0.25" stroke-linejoin="round" stroke-miterlimit="10" d="
			M173.51563,172.31445l-2.00684-1.06494l-1.27051,1.0293l-0.58008-0.30664l4.79004-3.79102l-0.50586,6.06152l-0.5791-0.30713
			L173.51563,172.31445z M173.57324,171.71045l0.20898-2.30713l-1.80566,1.45996L173.57324,171.71045z"/>
		<path fill="#A3A3A3" stroke="#A3A3A3" stroke-width="0.25" stroke-linejoin="round" stroke-miterlimit="10" d="
			M179.34277,171.53223c-0.02637-0.15918-0.09277-0.34766-0.17871-0.47461c-0.0752-0.10693-0.22656-0.26367-0.51758-0.35498
			c-0.50488-0.15723-0.95313,0.04639-1.10156,0.52002c-0.0625,0.19922-0.04395,0.32959,0.05273,0.50244
			c0.10547,0.20117,0.26953,0.34424,0.43457,0.48779l0.42188,0.3667c0.25781,0.22314,0.48926,0.44678,0.63574,0.72705
			c0.17969,0.34082,0.19336,0.67334,0.07813,1.03906c-0.29297,0.93994-1.18359,1.34912-2.09961,1.06299
			c-0.33691-0.10498-0.73535-0.30469-0.97949-0.75879c-0.17578-0.32324-0.21875-0.72266-0.19238-1.04883l0.59766,0.01807
			c-0.04492,0.28027,0.00586,0.54736,0.10352,0.74463c0.15234,0.2915,0.38477,0.43164,0.64453,0.5127
			c0.69531,0.21729,1.17969-0.17773,1.33887-0.68896c0.07129-0.22852,0.06543-0.44971-0.06543-0.6748
			c-0.10352-0.18359-0.27246-0.33643-0.50195-0.54248l-0.3916-0.35645c-0.1709-0.1543-0.38965-0.33984-0.54883-0.63232
			c-0.15527-0.28369-0.20996-0.56104-0.09082-0.94336c0.24512-0.78662,1.01367-1.125,1.83887-0.86719
			c0.31348,0.09717,0.5459,0.2373,0.74512,0.48438c0.16406,0.20215,0.27539,0.46338,0.32031,0.72021L179.34277,171.53223z"/>
		<path fill="#A3A3A3" stroke="#A3A3A3" stroke-width="0.25" stroke-linejoin="round" stroke-miterlimit="10" d="
			M182.16602,174.13281l-1.32227-3.25098l0.68164,0.09326l1.02344,2.54785l1.6875-2.1748l0.68164,0.09375l-2.16602,2.77197
			l-0.3125,2.27393l-0.58691-0.08057L182.16602,174.13281z"/>
		<path fill="#A3A3A3" stroke="#A3A3A3" stroke-width="0.25" stroke-linejoin="round" stroke-miterlimit="10" d="
			M185.9043,176.87207l0.44727-5.68652l2.39355,4.33301l1.73145-4.66309l1.26855,5.56104l-0.60645,0.04639l-0.79199-3.6626
			l-1.50488,4.06641l-2.09375-3.78516l-0.2373,3.74316L185.9043,176.87207z"/>
		<path fill="#A3A3A3" stroke="#A3A3A3" stroke-width="0.25" stroke-linejoin="round" stroke-miterlimit="10" d="
			M194.26172,175.88379l-1.06738-5.59766l3.44727,3.54395l0.43945-4.94922l2.68848,5.02393l-0.57129,0.20557l-1.72852-3.32227
			l-0.37793,4.31641l-3.01563-3.09668l0.75781,3.66992L194.26172,175.88379z"/>
		<path fill="#A3A3A3" stroke="#A3A3A3" stroke-width="0.25" stroke-linejoin="round" stroke-miterlimit="10" d="
			M201.80273,171.86768c0.18652-0.10791,0.4375-0.0415,0.54688,0.14453c0.10938,0.18799,0.04199,0.43896-0.14453,0.54785
			c-0.1875,0.10889-0.43848,0.0415-0.54688-0.14404C201.54883,172.22803,201.61523,171.97705,201.80273,171.86768z"/>
	</g>
	<g>
		<circle fill="none" cx="135" cy="198.5" r="28.59473"/>
		
			<path fill="#A3A3A3" stroke="#A3A3A3" stroke-width="0.25" stroke-linecap="round" stroke-linejoin="round" stroke-miterlimit="10" d="
			M127.12695,224.31494c-0.02051-0.15967-0.08203-0.35059-0.16309-0.48047c-0.07227-0.10986-0.21973-0.27002-0.50684-0.36914
			c-0.49902-0.17285-0.9541,0.0166-1.11621,0.48535c-0.06738,0.19678-0.05371,0.32813,0.03809,0.50391
			c0.09863,0.20313,0.25977,0.35205,0.41992,0.50098l0.41016,0.37891c0.25,0.22998,0.47559,0.45996,0.61426,0.74561
			c0.16797,0.34521,0.17285,0.67578,0.04688,1.04004c-0.32129,0.9292-1.22363,1.31104-2.13086,0.99805
			c-0.33301-0.11523-0.72461-0.32666-0.95508-0.78711c-0.16504-0.32764-0.19629-0.72754-0.16016-1.0542l0.59668,0.03711
			c-0.05469,0.27734-0.01172,0.54688,0.08008,0.74658c0.14355,0.29541,0.37207,0.44189,0.62891,0.53076
			c0.68848,0.23682,1.18262-0.14063,1.35742-0.64795c0.07813-0.22656,0.07813-0.44678-0.0459-0.67529
			c-0.09668-0.18652-0.26074-0.3457-0.48438-0.55713l-0.37988-0.36865c-0.16602-0.1582-0.37891-0.35059-0.5293-0.64697
			c-0.14648-0.28857-0.19434-0.56738-0.06348-0.94482c0.26855-0.77832,1.0459-1.09424,1.8623-0.8125
			c0.31055,0.10742,0.53906,0.25391,0.73047,0.50732c0.1582,0.20557,0.26172,0.46924,0.29883,0.72852L127.12695,224.31494z"/>
		
			<path fill="#A3A3A3" stroke="#A3A3A3" stroke-width="0.25" stroke-linecap="round" stroke-linejoin="round" stroke-miterlimit="10" d="
			M129.14844,225.99414l2.70215,0.4375l0.34668-2.1416l0.58398,0.09375l-0.85156,5.27246l-0.58398-0.09521l0.41602-2.57617
			l-2.70313-0.43652l-0.41699,2.57617l-0.58496-0.09521l0.85352-5.271l0.58398,0.09424L129.14844,225.99414z"/>
		
			<path fill="#A3A3A3" stroke="#A3A3A3" stroke-width="0.25" stroke-linecap="round" stroke-linejoin="round" stroke-miterlimit="10" d="
			M136.9082,228.18799l-2.27148,0.06445l-0.59766,1.52148l-0.65625,0.01855l2.29883-5.65918l2.54785,5.52246l-0.65527,0.01855
			L136.9082,228.18799z M136.66016,227.63525l-0.95508-2.10938l-0.85254,2.16016L136.66016,227.63525z"/>
		
			<path fill="#A3A3A3" stroke="#A3A3A3" stroke-width="0.25" stroke-linecap="round" stroke-linejoin="round" stroke-miterlimit="10" d="
			M139.57129,223.99268c0.52637-0.09717,0.97852-0.11572,1.38965,0.12549c0.44629,0.25928,0.62598,0.70557,0.6875,1.03564
			c0.13672,0.73877-0.19238,1.55615-1.3877,1.77734l-0.51074,0.09424l0.4209,2.27979l-0.58105,0.10791l-0.96973-5.24463
			L139.57129,223.99268z M139.64844,226.4751l0.47949-0.08838c0.69141-0.12842,1.04395-0.55127,0.93164-1.15674
			c-0.15332-0.8335-0.94629-0.76855-1.32324-0.69873l-0.43262,0.08008L139.64844,226.4751z"/>
		
			<path fill="#A3A3A3" stroke="#A3A3A3" stroke-width="0.25" stroke-linecap="round" stroke-linejoin="round" stroke-miterlimit="10" d="
			M144.81836,223.11572l-2.06445,0.68799l0.5,1.50391l2.00488-0.66748l0.17676,0.53125l-2.00391,0.66748l0.6543,1.9668
			l2.06445-0.68799l0.17773,0.53174l-2.62695,0.87451l-1.68555-5.06494l2.62695-0.87451L144.81836,223.11572z"/>
	</g>
	<g>
		<circle fill="none" cx="135" cy="283.5" r="28.59473"/>
		
			<path fill="#A3A3A3" stroke="#A3A3A3" stroke-width="0.25" stroke-linecap="round" stroke-linejoin="round" stroke-miterlimit="10" d="
			M117.6709,309.67383l3.43262-4.54932l-0.3125,4.93604l3.96484-2.99658l-1.91992,5.36523l-0.53711-0.28564l1.30273-3.51123
			l-3.45313,2.61572l0.27148-4.31299l-2.21289,3.0249L117.6709,309.67383z"/>
		
			<path fill="#A3A3A3" stroke="#A3A3A3" stroke-width="0.25" stroke-linecap="round" stroke-linejoin="round" stroke-miterlimit="10" d="
			M127.42578,308.27979l-1.61328,5.0874l-0.56445-0.17871l1.61328-5.0874L127.42578,308.27979z"/>
		
			<path fill="#A3A3A3" stroke="#A3A3A3" stroke-width="0.25" stroke-linecap="round" stroke-linejoin="round" stroke-miterlimit="10" d="
			M129.7207,311.49268l-0.96484-2.78711l0.66309,0.11621l0.74023,2.17041l1.46777-1.78223l0.66211,0.11719l-1.88965,2.28467
			l1.04395,2.98877l-0.66309-0.11621l-0.82617-2.37305l-1.60254,1.9458l-0.66211-0.11719L129.7207,311.49268z"/>
		
			<path fill="#A3A3A3" stroke="#A3A3A3" stroke-width="0.25" stroke-linecap="round" stroke-linejoin="round" stroke-miterlimit="10" d="
			M135.90332,312.21533c-0.2207-1.57666,0.8457-2.9043,2.36621-3.11719c1.51953-0.21289,2.91016,0.77246,3.12988,2.34814
			c0.21973,1.56787-0.83691,2.90234-2.36621,3.11621C137.50391,314.77686,136.12305,313.7832,135.90332,312.21533z
			 M136.50488,312.13086c0.16895,1.21143,1.2627,2.04297,2.4502,1.87695c1.18848-0.16602,2.01172-1.26611,1.84277-2.47705
			c-0.16895-1.21143-1.2627-2.04395-2.45117-1.87793C137.1582,309.81787,136.33594,310.91846,136.50488,312.13086z"/>
		
			<path fill="#A3A3A3" stroke="#A3A3A3" stroke-width="0.25" stroke-linecap="round" stroke-linejoin="round" stroke-miterlimit="10" d="
			M144.00879,311.27246c0.15723,0.41992,0.3291,0.87695,0.85254,1.06543c0.26563,0.09619,0.65332,0.07959,0.93164-0.02344
			c0.27734-0.10449,0.58008-0.3457,0.7168-0.59326c0.27148-0.4873,0.09961-0.94434-0.05664-1.36377l-1.14844-3.06592
			l0.55469-0.20801l1.2041,3.21582c0.15723,0.41895,0.26465,0.84082,0.13477,1.31787
			c-0.14551,0.52393-0.57129,0.98389-1.20996,1.22217c-0.63672,0.2373-1.25977,0.17285-1.71387-0.12842
			c-0.41113-0.27295-0.60645-0.66113-0.76465-1.08105l-1.2041-3.21582l0.55566-0.2085L144.00879,311.27246z"/>
		
			<path fill="#A3A3A3" stroke="#A3A3A3" stroke-width="0.25" stroke-linecap="round" stroke-linejoin="round" stroke-miterlimit="10" d="
			M148.77148,306.08643l2.44727,4.10596l-0.50781,0.30322l-2.44922-4.10645l-1.11328,0.66455l-0.28711-0.48096l2.73633-1.63135
			l0.28809,0.48096L148.77148,306.08643z"/>
	</g>
	<g>
		<circle fill="none" cx="135" cy="283.44943" r="28.59473"/>
		<path fill="#A3A3A3" d="M158.99805,264.25879l-1.875,2.56689l3.35156-0.77783l-1.9707,2.7915l3.13477-0.73193l0.27832,0.40576
			l-4.42383,0.99707l1.97754-2.78174l-3.35352,0.77295l2.60352-3.64893L158.99805,264.25879z"/>
		<path fill="#A3A3A3" d="M162.7832,270.5166c0.11133,0.24609,0.25977,0.61963,0.19727,0.97705
			c-0.0459,0.27686-0.24023,0.58887-0.62695,0.76416c-0.55859,0.25195-1.13281,0.07129-1.42188-0.46338l-1.10352,1.89502
			l-0.22266-0.49219l1.09375-1.83057l-0.04688-0.10352l-1.5957,0.72119l-0.18359-0.4043l3.64648-1.64795L162.7832,270.5166z
			 M161.0127,271.09961l0.11621,0.25732c0.22656,0.50244,0.60352,0.69434,1.0293,0.50195
			c0.20215-0.0918,0.37695-0.24268,0.4043-0.53174c0.01953-0.20605-0.05469-0.39648-0.13281-0.57178l-0.11133-0.24561
			L161.0127,271.09961z"/>
		<path fill="#A3A3A3" d="M161.88281,276.44629l-0.47852-1.63477l-1.2168-0.14453l-0.1377-0.47266l4.54297,0.5918l-3.52246,2.89844
			l-0.13867-0.47217L161.88281,276.44629z M162.23828,276.16211l1.34863-1.09473l-1.72949-0.20703L162.23828,276.16211z"/>
		<path fill="#A3A3A3" d="M165.27344,278.70947c0.05664,0.39795,0.05664,0.73682-0.13672,1.0376
			c-0.20703,0.32617-0.54883,0.44775-0.79688,0.48291c-0.55859,0.07959-1.16113-0.19238-1.28906-1.09424l-0.05566-0.38623
			l-1.72168,0.24512l-0.0625-0.43896l3.96094-0.56445L165.27344,278.70947z M163.41113,278.69043l0.05176,0.36182
			c0.07422,0.52246,0.38086,0.80029,0.83789,0.73486c0.62891-0.08936,0.60352-0.68555,0.56348-0.9707l-0.0459-0.32666
			L163.41113,278.69043z"/>
		<path fill="#A3A3A3" d="M164.85938,283.33105c0.10742-0.05762,0.22363-0.15039,0.29297-0.24268
			c0.05762-0.08008,0.13086-0.22607,0.125-0.4541c-0.01172-0.396-0.26465-0.66455-0.63672-0.65381
			c-0.15625,0.00488-0.24512,0.04932-0.34375,0.16016c-0.11719,0.12354-0.17773,0.27539-0.24023,0.42725l-0.15625,0.38867
			c-0.09473,0.23682-0.19629,0.45605-0.35938,0.62891c-0.19727,0.20996-0.42969,0.30029-0.7168,0.30908
			c-0.73828,0.02148-1.24609-0.50977-1.26758-1.22949c-0.00781-0.26367,0.03711-0.59473,0.29785-0.87891
			c0.18652-0.2041,0.45996-0.33154,0.69824-0.39258l0.13281,0.42822c-0.20996,0.03613-0.38672,0.13721-0.50391,0.25488
			c-0.16797,0.1792-0.21094,0.37842-0.2041,0.58252c0.01465,0.54541,0.41309,0.79199,0.81543,0.77979
			c0.17969-0.00488,0.33398-0.06396,0.46094-0.21143c0.10449-0.1167,0.17188-0.27539,0.26172-0.4873l0.1582-0.36523
			c0.06641-0.1582,0.14453-0.3584,0.31445-0.54346c0.16211-0.17871,0.34473-0.28613,0.64453-0.29541
			c0.61719-0.01758,1.04492,0.44434,1.06445,1.0918c0.00781,0.24609-0.03516,0.44531-0.16113,0.64648
			c-0.10254,0.16553-0.26074,0.30811-0.43164,0.40332L164.85938,283.33105z"/>
		<path fill="#A3A3A3" d="M164.66406,289.3335l0.22168-1.36084l-1.16504-0.18945l-0.21484,1.3125l-0.41406-0.06738l0.21484-1.31348
			l-1.95117-0.31787l0.07031-0.43799l3.94531,0.64355l-0.29297,1.79834L164.66406,289.3335z"/>
		<path fill="#A3A3A3" d="M162.90918,290.22314c1.1377,0.36768,1.68457,1.52295,1.33008,2.61963
			c-0.35449,1.09717-1.47461,1.71338-2.61035,1.34619c-1.13281-0.36572-1.6875-1.51709-1.33203-2.62012
			C160.65332,290.46582,161.77734,289.85742,162.90918,290.22314z M162.76855,290.65723
			c-0.87402-0.28223-1.79395,0.18408-2.07129,1.04102c-0.27734,0.85742,0.19629,1.77393,1.07031,2.05615
			c0.87598,0.28271,1.79492-0.18311,2.07227-1.04053S163.64258,290.93994,162.76855,290.65723z"/>
		<path fill="#A3A3A3" d="M162.60352,296.73145l-3.2168-1.56689l-0.48242,0.99219l-0.37598-0.18408l0.67578-1.39014l3.59473,1.75
			L162.60352,296.73145z"/>
		<path fill="#A3A3A3" d="M161.43359,299l-0.44727,0.68408c-0.21875,0.3374-0.56641,0.79248-1.19922,0.98145
			c-0.45703,0.13965-1.05859,0.12646-1.66113-0.26709c-0.7041-0.45947-0.85449-1.05273-0.90332-1.42871
			c-0.0625-0.47754,0.02344-0.88232,0.41309-1.47998l0.44336-0.6792L161.43359,299z M158.18848,297.41211l-0.21387,0.32715
			c-0.17285,0.2666-0.38281,0.65332-0.3252,1.15771c0.0459,0.38916,0.24902,0.80762,0.72559,1.11865
			c0.80469,0.52539,1.69629,0.30371,2.25-0.54639l0.21484-0.32666L158.18848,297.41211z"/>
	</g>
	<g>
		<circle fill="none" cx="135" cy="283.5" r="28.59473"/>
		<path fill="#A3A3A3" d="M107.95508,296.88916l3.19531-1.61621l0.20117,0.396l-3.19531,1.6167l0.4375,0.86621l-0.37305,0.18945
			l-1.07715-2.12988l0.37402-0.18945L107.95508,296.88916z"/>
		<path fill="#A3A3A3" d="M106.45117,294.52344l3.71777-1.47607l0.16309,0.41211l-3.71875,1.47559L106.45117,294.52344z"/>
		<path fill="#A3A3A3" d="M105.80664,292.79053l-0.21289-0.7876c-0.10449-0.3877-0.21289-0.94873,0.06641-1.54639
			c0.19922-0.43311,0.6084-0.87305,1.30273-1.06152c0.81055-0.21924,1.35352,0.06299,1.66602,0.27637
			c0.39648,0.27197,0.6416,0.60352,0.82813,1.29248l0.21094,0.78125L105.80664,292.79053z M109.14648,291.42676l-0.10156-0.37646
			c-0.08203-0.30713-0.23145-0.72021-0.64648-1.01221c-0.32129-0.22363-0.76563-0.35156-1.31543-0.20264
			c-0.92676,0.25-1.35254,1.06201-1.08887,2.04004l0.10156,0.37646L109.14648,291.42676z"/>
		<path fill="#A3A3A3" d="M104.90625,286.11719l0.20313,1.61914l1.17969-0.14844l-0.19922-1.57178l0.41699-0.05225l0.19824,1.57129
			l1.54102-0.19385l-0.20313-1.61914l0.41602-0.05225l0.25977,2.05908l-3.96973,0.5l-0.25977-2.05957L104.90625,286.11719z"/>
		<path fill="#A3A3A3" d="M105.18066,282.70801c-0.1084,0.0542-0.22949,0.14404-0.30078,0.23438
			c-0.05957,0.07764-0.1377,0.22217-0.1377,0.4502c0,0.39648,0.24609,0.67236,0.61914,0.67188
			c0.15625,0,0.24609-0.04199,0.34766-0.1499c0.12012-0.12061,0.18555-0.27051,0.25195-0.42041l0.16797-0.38428
			c0.10156-0.23438,0.20898-0.4502,0.37891-0.61914c0.20313-0.20361,0.4375-0.28809,0.72461-0.28809
			c0.73828-0.00049,1.23242,0.54541,1.23242,1.26563c0,0.26465-0.05469,0.59473-0.32422,0.87109
			c-0.19238,0.19824-0.4668,0.31836-0.70898,0.37207l-0.11914-0.43164c0.20898-0.03027,0.39063-0.12646,0.51074-0.24072
			c0.17285-0.17432,0.2207-0.37207,0.21973-0.57666c0-0.5459-0.38867-0.8042-0.79102-0.80322
			c-0.18164,0-0.33594,0.05322-0.46875,0.19775c-0.10742,0.11475-0.17969,0.27051-0.27539,0.48047l-0.16895,0.36035
			c-0.07129,0.15674-0.15527,0.35449-0.3291,0.53467c-0.16797,0.17383-0.35449,0.27637-0.6543,0.27637
			c-0.61914,0.00049-1.0332-0.47314-1.0332-1.12207c0-0.24561,0.04688-0.44434,0.17969-0.64209
			c0.10742-0.1626,0.26953-0.30078,0.44336-0.39014L105.18066,282.70801z"/>
		<path fill="#A3A3A3" d="M105.5459,276.73145l-0.26074,1.35547l1.16113,0.22314l0.25098-1.30859l0.41211,0.07959l-0.25098,1.30811
			l1.94434,0.37354l-0.08398,0.43604l-3.92969-0.75537l0.34473-1.79053L105.5459,276.73145z"/>
		<path fill="#A3A3A3" d="M107.3291,275.88623c-1.12598-0.39844-1.6416-1.56738-1.25879-2.65332
			c0.38477-1.08691,1.51953-1.67188,2.64648-1.27393c1.11914,0.396,1.64453,1.56152,1.25879,2.65332
			S108.44922,276.28174,107.3291,275.88623z M107.48047,275.45557c0.86719,0.30615,1.79883-0.13477,2.09863-0.9834
			s-0.14941-1.77734-1.01465-2.08301c-0.86523-0.30615-1.79883,0.13428-2.09766,0.9834
			C106.16699,274.22119,106.61523,275.1499,107.48047,275.45557z"/>
		<path fill="#A3A3A3" d="M107.82715,269.3584L111,271.02734l0.51367-0.97803l0.37305,0.19531l-0.7207,1.37158l-3.5459-1.86475
			L107.82715,269.3584z"/>
		<path fill="#A3A3A3" d="M109.07813,267.13232l0.46484-0.66895c0.23047-0.3291,0.59082-0.77295,1.22852-0.94287
			c0.45801-0.12549,1.05859-0.09521,1.64844,0.31592c0.68945,0.47998,0.82129,1.07617,0.85938,1.45313
			c0.04688,0.47754-0.05078,0.87842-0.45801,1.46387l-0.46289,0.66357L109.07813,267.13232z M112.26758,268.81348l0.22363-0.31982
			c0.18066-0.26074,0.40137-0.64014,0.3584-1.14502c-0.03516-0.39014-0.22266-0.81299-0.69043-1.13818
			c-0.78613-0.54785-1.68262-0.35352-2.26074,0.47803l-0.22266,0.31982L112.26758,268.81348z"/>
	</g>
	<g>
		<circle fill="none" cx="183.01788" cy="44.24548" r="14.57799"/>
		
			<path fill="#A3A3A3" stroke="#A3A3A3" stroke-width="0.25" stroke-linecap="round" stroke-linejoin="round" stroke-miterlimit="10" d="
			M166.24805,35.74021l3.34863,1.72266l0.53027-1.03223l0.39258,0.20215l-0.74414,1.44727l-3.74121-1.92383L166.24805,35.74021z"/>
		
			<path fill="#A3A3A3" stroke="#A3A3A3" stroke-width="0.25" stroke-linecap="round" stroke-linejoin="round" stroke-miterlimit="10" d="
			M169.2168,32.07811l-1.04492,1.35742l0.98828,0.76074l1.01367-1.31641l0.34863,0.26953l-1.01465,1.31641l1.29199,0.99512
			l1.0459-1.35645l0.34961,0.26855l-1.33008,1.72559l-3.32715-2.5625l1.3291-1.72656L169.2168,32.07811z"/>
		
			<path fill="#A3A3A3" stroke="#A3A3A3" stroke-width="0.25" stroke-linecap="round" stroke-linejoin="round" stroke-miterlimit="10" d="
			M170.10156,30.52244l2.96387,1.70703l-1.1416-3.22363l0.39648-0.33105l1.54297,4.51465l-4.1582-2.33691L170.10156,30.52244z"/>
		
			<path fill="#A3A3A3" stroke="#A3A3A3" stroke-width="0.25" stroke-linecap="round" stroke-linejoin="round" stroke-miterlimit="10" d="
			M175.77051,27.31736l-1.52832,0.77832l0.56641,1.1123l1.4834-0.75488l0.2002,0.39258l-1.4834,0.75586l0.74023,1.45508
			l1.52832-0.77832l0.20117,0.39453l-1.94531,0.98926l-1.90625-3.74805l1.94336-0.98926L175.77051,27.31736z"/>
		
			<path fill="#A3A3A3" stroke="#A3A3A3" stroke-width="0.25" stroke-linecap="round" stroke-linejoin="round" stroke-miterlimit="10" d="
			M177.54785,26.24705l1.07031,3.60156l1.11035-0.33008l0.125,0.42285l-1.55664,0.46191l-1.19531-4.02441L177.54785,26.24705z"/>
		
			<path fill="#A3A3A3" stroke="#A3A3A3" stroke-width="0.25" stroke-linecap="round" stroke-linejoin="round" stroke-miterlimit="10" d="
			M182.82813,27.35643l1.97949,0.0918l-0.03027,0.66504l-1.97949-0.0918L182.82813,27.35643z"/>
		
			<path fill="#A3A3A3" stroke="#A3A3A3" stroke-width="0.25" stroke-linecap="round" stroke-linejoin="round" stroke-miterlimit="10" d="
			M190.83496,29.46482l1.5625,0.79395l-0.0459,0.08984c-0.21094,0.41602-0.5625,0.80273-0.96094,1.00391
			c-0.19043,0.09473-0.87695,0.4043-1.7373-0.0332c-1.11328-0.56543-1.51465-1.83594-0.96094-2.92676
			s1.82324-1.51465,2.94043-0.94629c0.36035,0.18262,0.73633,0.48633,0.95898,0.95313
			c0.10352,0.21387,0.17578,0.46289,0.20801,0.66406l-0.45215,0.12402c-0.03027-0.20703-0.08398-0.4043-0.15723-0.56738
			c-0.10547-0.23828-0.30176-0.5498-0.75098-0.77734c-0.9043-0.45996-1.88086-0.09961-2.32227,0.77148
			c-0.51953,1.02441,0.0332,1.95508,0.74219,2.31445c0.5,0.25391,1.06055,0.2207,1.46582-0.04688
			c0.12793-0.08398,0.29199-0.22852,0.42285-0.45801l-1.11328-0.56445L190.83496,29.46482z"/>
		
			<path fill="#A3A3A3" stroke="#A3A3A3" stroke-width="0.25" stroke-linecap="round" stroke-linejoin="round" stroke-miterlimit="10" d="
			M194.4873,33.36619l-1.30176-1.22754l-1.17969,0.51758l-0.375-0.35449l4.42773-1.87891l-1.65039,4.49707l-0.37598-0.35449
			L194.4873,33.36619z M194.65625,32.92088l0.64063-1.70898l-1.67676,0.73145L194.65625,32.92088z"/>
		
			<path fill="#A3A3A3" stroke="#A3A3A3" stroke-width="0.25" stroke-linecap="round" stroke-linejoin="round" stroke-miterlimit="10" d="
			M198.21289,33.93943l-3.08789,2.14941l-0.26758-0.38281l3.08887-2.15039l-0.58301-0.83691l0.36133-0.25293l1.43359,2.05859
			l-0.3623,0.25195L198.21289,33.93943z"/>
		
			<path fill="#A3A3A3" stroke="#A3A3A3" stroke-width="0.25" stroke-linecap="round" stroke-linejoin="round" stroke-miterlimit="10" d="
			M200.29883,37.9658l-0.68555-1.57031l-1.14258,0.5l0.66602,1.52246l-0.4043,0.17676l-0.66504-1.52344l-1.49512,0.65234
			l0.68555,1.57031l-0.4043,0.17578l-0.87109-1.99707l3.84961-1.68066l0.87109,1.99707L200.29883,37.9658z"/>
	</g>
	<g>
		<circle fill="none" cx="183.01788" cy="44.24548" r="13.74777"/>
		
			<path fill="#A3A3A3" stroke="#A3A3A3" stroke-width="0.25" stroke-linecap="round" stroke-linejoin="round" stroke-miterlimit="10" d="
			M175.6582,57.02537l-2.03613,3.40332l-0.37793-0.22607l2.03613-3.40381L175.6582,57.02537z"/>
		
			<path fill="#A3A3A3" stroke="#A3A3A3" stroke-width="0.25" stroke-linecap="round" stroke-linejoin="round" stroke-miterlimit="10" d="
			M175.52734,61.49021l1.29004-3.92285l1.92285,4.04102l0.95898-2.91748l0.41797,0.13721l-1.29297,3.93311l-1.92383-4.04004
			l-0.95508,2.90527L175.52734,61.49021z"/>
		
			<path fill="#A3A3A3" stroke="#A3A3A3" stroke-width="0.25" stroke-linecap="round" stroke-linejoin="round" stroke-miterlimit="10" d="
			M182.10938,58.97215c0.39844,0.02051,0.72852,0.08545,0.98242,0.33105c0.27832,0.26514,0.33105,0.61963,0.31836,0.86865
			c-0.0293,0.55859-0.41016,1.09229-1.3125,1.04541l-0.38574-0.021l-0.09082,1.72168l-0.43945-0.02295l0.20898-3.96143
			L182.10938,58.97215z M181.73438,60.78025l0.36133,0.01904c0.52344,0.02734,0.85156-0.21631,0.87598-0.6748
			c0.0332-0.62891-0.55176-0.71973-0.83691-0.73486l-0.32617-0.0166L181.73438,60.78025z"/>
		
			<path fill="#A3A3A3" stroke="#A3A3A3" stroke-width="0.25" stroke-linecap="round" stroke-linejoin="round" stroke-miterlimit="10" d="
			M185.21094,61.31834c0.06055,0.32715,0.12695,0.68359,0.48633,0.89063c0.18164,0.104,0.46777,0.14258,0.68359,0.10205
			c0.2168-0.04004,0.46875-0.17822,0.60156-0.34229c0.26172-0.32031,0.19531-0.67676,0.13477-1.00488l-0.44531-2.39209
			l0.43359-0.08057l0.46582,2.50977c0.06152,0.32666,0.08496,0.64941-0.07129,0.98145
			c-0.17383,0.36523-0.5459,0.64648-1.04297,0.7373c-0.49609,0.09229-0.94434-0.03564-1.23828-0.31396
			c-0.26465-0.25391-0.3584-0.5625-0.41895-0.88965l-0.4668-2.50977l0.43262-0.08057L185.21094,61.31834z"/>
		
			<path fill="#A3A3A3" stroke="#A3A3A3" stroke-width="0.25" stroke-linecap="round" stroke-linejoin="round" stroke-miterlimit="10" d="
			M189.36719,58.03416l1.43945,3.24072l-0.40039,0.1792l-1.44141-3.24023l-0.87891,0.38965l-0.16992-0.37891l2.16016-0.96094
			l0.16992,0.37988L189.36719,58.03416z"/>
	</g>
	<path fill="#A3A3A3" d="M135.0166,94.38799c-12.34618,0-22.35229,10.00868-22.35229,22.35357
		c0,12.34618,10.00612,22.35358,22.35229,22.35358s22.35484-10.0074,22.35484-22.35358
		C157.37144,104.39665,147.36276,94.38799,135.0166,94.38799z M139.50449,126.60542c-0.00513,0-0.02563,0-0.0564,0
		c-0.48697,0-3.98296-0.09227-6.57162-2.58099c-1.76338-1.69417-2.68095-4.06754-2.73734-7.04836
		c-0.0974-5.11071-1.25589-6.83307-1.94278-7.40719c-0.49211-0.41521-0.89707-0.37164-0.94833-0.35627
		c-0.93295,0.02307-1.45068,0.2358-1.89665,0.69971c-1.4353,1.47375-1.63522,4.9236-1.58908,6.12823
		c0.0205,0.69458-0.51774,1.27895-1.21488,1.30459c-0.72791-0.04357-1.27127-0.51517-1.30715-1.20975
		c-0.02051-0.55106-0.13328-5.46441,2.29649-7.97363c0.89706-0.92526,2.05043-1.41993,3.34733-1.44043
		c0.46135-0.06664,1.59933-0.11021,2.77834,0.79198c1.89665,1.45325,2.90649,4.62116,2.99876,9.41662
		c0.12814,7.04324,6.14618,7.18164,6.82281,7.15601c5.75659-0.00256,6.71516-8.05051,6.72542-8.13253
		c0.07689-0.69459,0.69716-1.21488,1.38918-1.11493c0.69202,0.0769,1.18925,0.69971,1.11235,1.39173
		C148.31622,119.81847,145.87621,126.60542,139.50449,126.60542z"/>
	<path fill="none" stroke="#A3A3A3" stroke-width="0.75" stroke-linecap="round" stroke-linejoin="round" d="M132.42606,171.2375
		l2.1142-2.90543c0.28601-0.39305,0.74971-0.39305,1.03572,0l2.06525,2.83815"/>
	<path fill="none" stroke="#A3A3A3" stroke-width="0.75" stroke-linecap="round" stroke-linejoin="round" d="M113.20948,215.98599
		v-2.04651c0-0.3075-0.24951-0.55701-0.55713-0.55701h-1.52734l-0.15088-0.302c-0.19629-0.39307-0.51465-0.39307-0.71094,0
		l-0.15088,0.302h-1.56104c-0.30762,0-0.55713,0.24951-0.55713,0.55701v2.04651"/>
	<path fill="none" stroke="#A3A3A3" stroke-width="0.75" stroke-linecap="round" stroke-linejoin="round" d="M162.32089,215.77606
		l-1.05725-2.90544c-0.14243-0.39139-0.37546-0.39139-0.51787,0.00002l-0.7982,2.19385
		c-0.08795,0.24176-0.42986,0.24176-0.51782,0.00002l-0.79831-2.19386c-0.14243-0.3914-0.37547-0.39139-0.51788,0l-1.05708,2.90543"
		/>
	<path fill="none" stroke="#A3A3A3" stroke-width="0.75" stroke-linecap="round" stroke-linejoin="round" d="M163.01236,159.56996
		l2.61346,3.59154"/>
	<path fill="none" stroke="#A3A3A3" stroke-width="0.75" stroke-linecap="round" stroke-linejoin="round" d="M158.77417,163.24988
		l2.67778-3.67992"/>
	
		<line fill="none" stroke="#A3A3A3" stroke-width="0.75" stroke-linecap="round" stroke-linejoin="round" x1="161.45195" y1="157.98439" x2="161.45195" y2="163.25916"/>
	
		<line fill="none" stroke="#A3A3A3" stroke-width="0.75" stroke-linecap="round" stroke-linejoin="round" x1="163.00218" y1="163.24062" x2="163.00218" y2="157.96584"/>
	<path fill="none" stroke="#A3A3A3" stroke-width="0.75" stroke-linecap="round" stroke-linejoin="round" d="M212.29947,159.6153
		l1.32635,3.6653"/>
	<path fill="none" stroke="#A3A3A3" stroke-width="0.75" stroke-linecap="round" stroke-linejoin="round" d="M206.63345,163.37079
		l4.07355-3.75549"/>
	
		<line fill="none" stroke="#A3A3A3" stroke-width="0.75" stroke-linecap="round" stroke-linejoin="round" x1="210.707" y1="157.99715" x2="210.707" y2="163.38025"/>
	
		<line fill="none" stroke="#A3A3A3" stroke-width="0.75" stroke-linecap="round" stroke-linejoin="round" x1="212.28908" y1="163.36133" x2="212.28908" y2="157.97823"/>
	<path fill="none" stroke="#A3A3A3" stroke-width="0.75" stroke-linecap="round" stroke-linejoin="round" d="M112.49635,162.69589
		l-0.80414-2.90544c-0.10832-0.39139-0.28557-0.39137-0.39388,0.00002l-0.60711,2.19386
		c-0.06689,0.24174-0.32694,0.24176-0.39384,0.00002l-0.6072-2.19388c-0.10832-0.39139-0.28558-0.39139-0.39388,0.00002
		l-0.59276,2.142c-0.07177,0.25935-0.35077,0.25937-0.42255,0l-0.59285-2.14203c-0.10832-0.39139-0.28557-0.39137-0.39388,0.00002
		l-0.60711,2.19386c-0.06689,0.24174-0.32694,0.24176-0.39384,0.00002l-0.6072-2.19388
		c-0.10832-0.39139-0.28558-0.39139-0.39388,0.00002l-0.80402,2.90541"/>
</g>
</svg>
