<?xml version="1.0" encoding="UTF-8" standalone="no"?>
<svg
   xmlns:dc="http://purl.org/dc/elements/1.1/"
   xmlns:cc="http://creativecommons.org/ns#"
   xmlns:rdf="http://www.w3.org/1999/02/22-rdf-syntax-ns#"
   xmlns:svg="http://www.w3.org/2000/svg"
   xmlns="http://www.w3.org/2000/svg"
   xmlns:sodipodi="http://sodipodi.sourceforge.net/DTD/sodipodi-0.dtd"
   xmlns:inkscape="http://www.inkscape.org/namespaces/inkscape"
   inkscape:version="1.0beta2 (368ca91, 2020-02-26)"
   sodipodi:docname="Rogan1PSWhite.svg"
   id="svg15246"
   version="1.1"
   viewBox="0 0 6.2990295 6.2990299"
   height="6.2990298mm"
   width="6.2990298mm">
  <defs
     id="defs15240">
    <clipPath
       id="clip89">
      <rect
         id="rect4864"
         height="19"
         width="18"
         x="0"
         y="0" />
    </clipPath>
    <clipPath
       id="clip90">
      <path
         id="path4861"
         d="m 0.898438,0.128906 h 16.25 v 17.882813 h -16.25 z m 0,0"
         inkscape:connector-curvature="0" />
    </clipPath>
    <mask
       id="mask44">
      <g
         transform="matrix(0.26458333,0,0,0.26458333,89.358789,128.57765)"
         id="g4858"
         style="filter:url(#alpha)">
        <rect
           id="rect4856"
           style="fill:#000000;fill-opacity:0.149994;stroke:none"
           height="3351.5"
           width="3052.8701"
           y="0"
           x="0" />
      </g>
    </mask>
    <filter
       height="1"
       width="1"
       y="0"
       x="0"
       filterUnits="objectBoundingBox"
       id="alpha">
      <feColorMatrix
         id="feColorMatrix4149"
         values="0 0 0 0 1 0 0 0 0 1 0 0 0 0 1 0 0 0 1 0"
         in="SourceGraphic"
         type="matrix" />
    </filter>
    <clipPath
       id="clipPath17821">
      <rect
         id="rect17819"
         height="19"
         width="18"
         x="0"
         y="0" />
    </clipPath>
    <clipPath
       id="clipPath17825">
      <path
         id="path17823"
         d="m 0.898438,0.128906 h 16.25 v 17.882813 h -16.25 z m 0,0"
         inkscape:connector-curvature="0" />
    </clipPath>
    <clipPath
       id="clip87">
      <rect
         id="rect4848"
         height="26"
         width="24"
         x="0"
         y="0" />
    </clipPath>
    <clipPath
       id="clip88">
      <path
         id="path4845"
         d="m 0.683594,0.921875 h 22.679687 v 24.9375 H 0.683594 Z m 0,0"
         inkscape:connector-curvature="0" />
    </clipPath>
    <mask
       id="mask43">
      <g
         transform="matrix(0.26458333,0,0,0.26458333,89.358789,128.57765)"
         id="g4842"
         style="filter:url(#alpha)">
        <rect
           id="rect4840"
           style="fill:#000000;fill-opacity:0.149994;stroke:none"
           height="3351.5"
           width="3052.8701"
           y="0"
           x="0" />
      </g>
    </mask>
    <filter
       height="1"
       width="1"
       y="0"
       x="0"
       filterUnits="objectBoundingBox"
       id="filter17836">
      <feColorMatrix
         id="feColorMatrix17834"
         values="0 0 0 0 1 0 0 0 0 1 0 0 0 0 1 0 0 0 1 0"
         in="SourceGraphic"
         type="matrix" />
    </filter>
    <clipPath
       id="clipPath17840">
      <rect
         id="rect17838"
         height="26"
         width="24"
         x="0"
         y="0" />
    </clipPath>
    <clipPath
       id="clipPath17844">
      <path
         id="path17842"
         d="m 0.683594,0.921875 h 22.679687 v 24.9375 H 0.683594 Z m 0,0"
         inkscape:connector-curvature="0" />
    </clipPath>
    <clipPath
       id="clip95">
      <rect
         id="rect4912"
         height="18"
         width="18"
         x="0"
         y="0" />
    </clipPath>
    <clipPath
       id="clip96">
      <path
         id="path4909"
         d="M 0.140625,0.140625 H 17.199219 V 17.199219 H 0.140625 Z m 0,0"
         inkscape:connector-curvature="0" />
    </clipPath>
    <mask
       id="mask47">
      <g
         transform="matrix(0.26458333,0,0,0.26458333,88.611154,119.19859)"
         id="g4906"
         style="filter:url(#alpha-3)">
        <rect
           id="rect4904"
           style="fill:#000000;fill-opacity:0.330002;stroke:none"
           height="3351.5"
           width="3052.8701"
           y="0"
           x="0" />
      </g>
    </mask>
    <filter
       height="1"
       width="1"
       y="0"
       x="0"
       filterUnits="objectBoundingBox"
       id="alpha-3">
      <feColorMatrix
         id="feColorMatrix4149-6"
         values="0 0 0 0 1 0 0 0 0 1 0 0 0 0 1 0 0 0 1 0"
         in="SourceGraphic"
         type="matrix" />
    </filter>
    <clipPath
       id="clipPath18541">
      <rect
         id="rect18539"
         height="18"
         width="18"
         x="0"
         y="0" />
    </clipPath>
    <clipPath
       id="clipPath18545">
      <path
         id="path18543"
         d="M 0.140625,0.140625 H 17.199219 V 17.199219 H 0.140625 Z m 0,0"
         inkscape:connector-curvature="0" />
    </clipPath>
    <clipPath
       id="clip93">
      <rect
         id="rect4896"
         height="24"
         width="22"
         x="0"
         y="0" />
    </clipPath>
    <clipPath
       id="clip94">
      <path
         id="path4893"
         d="M 0.0390625,0.0390625 H 21.300781 V 23.421875 H 0.0390625 Z m 0,0"
         inkscape:connector-curvature="0" />
    </clipPath>
    <mask
       id="mask46">
      <g
         transform="matrix(0.26458333,0,0,0.26458333,88.611154,119.19859)"
         id="g4890"
         style="filter:url(#alpha-3)">
        <rect
           id="rect4888"
           style="fill:#000000;fill-opacity:0.149994;stroke:none"
           height="3351.5"
           width="3052.8701"
           y="0"
           x="0" />
      </g>
    </mask>
    <filter
       height="1"
       width="1"
       y="0"
       x="0"
       filterUnits="objectBoundingBox"
       id="filter18556">
      <feColorMatrix
         id="feColorMatrix18554"
         values="0 0 0 0 1 0 0 0 0 1 0 0 0 0 1 0 0 0 1 0"
         in="SourceGraphic"
         type="matrix" />
    </filter>
    <clipPath
       id="clipPath18560">
      <rect
         id="rect18558"
         height="24"
         width="22"
         x="0"
         y="0" />
    </clipPath>
    <clipPath
       id="clipPath18564">
      <path
         id="path18562"
         d="M 0.0390625,0.0390625 H 21.300781 V 23.421875 H 0.0390625 Z m 0,0"
         inkscape:connector-curvature="0" />
    </clipPath>
    <clipPath
       id="clip91">
      <rect
         id="rect4880"
         height="32"
         width="29"
         x="0"
         y="0" />
    </clipPath>
    <clipPath
       id="clip92">
      <path
         id="path4877"
         d="M 0.507812,0.5 H 28.855469 V 31.679688 H 0.507812 Z m 0,0"
         inkscape:connector-curvature="0" />
    </clipPath>
    <mask
       id="mask45">
      <g
         transform="matrix(0.26458333,0,0,0.26458333,88.611154,119.19859)"
         id="g4874"
         style="filter:url(#alpha-3)">
        <rect
           id="rect4872"
           style="fill:#000000;fill-opacity:0.149994;stroke:none"
           height="3351.5"
           width="3052.8701"
           y="0"
           x="0" />
      </g>
    </mask>
    <filter
       height="1"
       width="1"
       y="0"
       x="0"
       filterUnits="objectBoundingBox"
       id="filter18575">
      <feColorMatrix
         id="feColorMatrix18573"
         values="0 0 0 0 1 0 0 0 0 1 0 0 0 0 1 0 0 0 1 0"
         in="SourceGraphic"
         type="matrix" />
    </filter>
    <clipPath
       id="clipPath18579">
      <rect
         id="rect18577"
         height="32"
         width="29"
         x="0"
         y="0" />
    </clipPath>
    <clipPath
       id="clipPath18583">
      <path
         id="path18581"
         d="M 0.507812,0.5 H 28.855469 V 31.679688 H 0.507812 Z m 0,0"
         inkscape:connector-curvature="0" />
    </clipPath>
    <clipPath
       id="clip202">
      <rect
         id="rect5795"
         height="18"
         width="18"
         x="0"
         y="0" />
    </clipPath>
    <clipPath
       id="clip203">
      <path
         id="path5792"
         d="M 0.855469,0.140625 H 17.914062 V 17.199219 H 0.855469 Z m 0,0"
         inkscape:connector-curvature="0" />
    </clipPath>
    <mask
       id="mask104">
      <g
         transform="matrix(0.26458333,0,0,0.26458333,74.416306,97.613551)"
         id="g5789"
         style="filter:url(#alpha-7)">
        <rect
           id="rect5787"
           style="fill:#000000;fill-opacity:0.330002;stroke:none"
           height="3351.5"
           width="3052.8701"
           y="0"
           x="0" />
      </g>
    </mask>
    <filter
       height="1"
       width="1"
       y="0"
       x="0"
       filterUnits="objectBoundingBox"
       id="alpha-7">
      <feColorMatrix
         id="feColorMatrix4149-5"
         values="0 0 0 0 1 0 0 0 0 1 0 0 0 0 1 0 0 0 1 0"
         in="SourceGraphic"
         type="matrix" />
    </filter>
    <clipPath
       id="clipPath18765">
      <rect
         id="rect18763"
         height="18"
         width="18"
         x="0"
         y="0" />
    </clipPath>
    <clipPath
       id="clipPath18769">
      <path
         id="path18767"
         d="M 0.855469,0.140625 H 17.914062 V 17.199219 H 0.855469 Z m 0,0"
         inkscape:connector-curvature="0" />
    </clipPath>
  </defs>
  <sodipodi:namedview
     viewbox-height="6.29903"
     inkscape:document-rotation="0"
     fit-margin-bottom="0"
     fit-margin-right="0"
     fit-margin-left="0"
     fit-margin-top="0"
     units="px"
     inkscape:window-maximized="0"
     inkscape:window-y="0"
     inkscape:window-x="245"
     inkscape:window-height="1042"
     inkscape:window-width="1205"
     showgrid="false"
     inkscape:current-layer="layer1"
     inkscape:document-units="mm"
     inkscape:cy="67.507511"
     inkscape:cx="22.915265"
     inkscape:zoom="5.6"
     inkscape:pageshadow="2"
     inkscape:pageopacity="0.0"
     borderopacity="1.0"
     bordercolor="#666666"
     pagecolor="#ffffff"
     id="base" />
  <metadata
     id="metadata15243">
    <rdf:RDF>
      <cc:Work
         rdf:about="">
        <dc:format>image/svg+xml</dc:format>
        <dc:type
           rdf:resource="http://purl.org/dc/dcmitype/StillImage" />
        <dc:title></dc:title>
      </cc:Work>
    </rdf:RDF>
  </metadata>
  <g
     transform="translate(-49.282827,-86.085259)"
     id="layer1"
     inkscape:groupmode="layer"
     inkscape:label="Layer 1">
    <path
       style="fill:#000000;fill-opacity:1;fill-rule:nonzero;stroke:none;stroke-width:0.352778"
       d="m 55.581857,89.234463 c 0,1.739845 -1.409979,3.149826 -3.149816,3.149826 -1.739219,0 -3.149214,-1.409981 -3.149214,-3.149826 0,-1.739224 1.409995,-3.149204 3.149214,-3.149204 1.739837,0 3.149816,1.40998 3.149816,3.149204"
       id="path7589"
       inkscape:connector-curvature="0" />
    <path
       style="fill:#ffffff;fill-opacity:1;fill-rule:nonzero;stroke:none;stroke-width:0.352778"
       d="m 54.210323,89.234772 c 0,0.981532 -0.796133,1.777668 -1.777664,1.777668 -0.982149,0 -1.778282,-0.796136 -1.778282,-1.777668 0,-0.982149 0.796133,-1.777665 1.778282,-1.777665 0.981531,0 1.777664,0.795516 1.777664,1.777665"
       id="path7591"
       inkscape:connector-curvature="0" />
    <path
       style="fill:none;stroke:#636363;stroke-width:0.3;stroke-linecap:butt;stroke-linejoin:miter;stroke-miterlimit:10;stroke-dasharray:none;stroke-opacity:1"
       d="m 54.924614,89.234463 c 0,1.376499 -1.116072,2.492579 -2.491955,2.492579 -1.376501,0 -2.492573,-1.11608 -2.492573,-2.492579 0,-1.375878 1.116072,-2.491957 2.492573,-2.491957 1.375883,0 2.491955,1.116079 2.491955,2.491957 z m 0,0"
       id="path7593"
       inkscape:connector-curvature="0" />
    <path
       style="fill:#ffffff;fill-opacity:1;fill-rule:nonzero;stroke:none;stroke-width:0.352778"
       d="m 52.719122,86.09952 c -0.09425,-0.0087 -0.189732,-0.01425 -0.287081,-0.01425 -0.117192,0 -0.233145,0.0074 -0.347844,0.01984 v 1.425482 h 0.634925 z m 0,0"
       id="path7595"
       inkscape:connector-curvature="0" />
  </g>
</svg>
